<?xml version="1.0" encoding="utf-8" standalone="no"?>
<!DOCTYPE svg PUBLIC "-//W3C//DTD SVG 1.1//EN"
  "http://www.w3.org/Graphics/SVG/1.1/DTD/svg11.dtd">
<!-- Created with matplotlib (https://matplotlib.org/) -->
<svg height="776.016813pt" version="1.1" viewBox="0 0 986.441233 776.016813" width="986.441233pt" xmlns="http://www.w3.org/2000/svg" xmlns:xlink="http://www.w3.org/1999/xlink">
 <defs>
  <style type="text/css">
*{stroke-linecap:butt;stroke-linejoin:round;}
  </style>
 </defs>
 <g id="figure_1">
  <g id="patch_1">
   <path d="M 0 776.016813 
L 986.441233 776.016813 
L 986.441233 0 
L 0 0 
z
" style="fill:none;"/>
  </g>
  <g id="axes_1">
   <g id="patch_2">
    <path d="M 196.363438 734.589313 
L 979.241233 734.589313 
L 979.241233 67.189312 
L 196.363438 67.189312 
z
" style="fill:#ffffff;"/>
   </g>
   <g id="patch_3">
    <path clip-path="url(#p58bc30bee9)" d="M 196.363438 73.863312 
L 607.939897 73.863312 
L 607.939897 87.211312 
L 196.363438 87.211312 
z
" style="fill:#3274a1;"/>
   </g>
   <g id="patch_4">
    <path clip-path="url(#p58bc30bee9)" d="M 196.363438 140.603312 
L 830.041424 140.603312 
L 830.041424 153.951312 
L 196.363438 153.951312 
z
" style="fill:#3274a1;"/>
   </g>
   <g id="patch_5">
    <path clip-path="url(#p58bc30bee9)" d="M 196.363438 207.343312 
L 350.002603 207.343312 
L 350.002603 220.691312 
L 196.363438 220.691312 
z
" style="fill:#3274a1;"/>
   </g>
   <g id="patch_6">
    <path clip-path="url(#p58bc30bee9)" d="M 196.363438 274.083312 
L 280.203087 274.083312 
L 280.203087 287.431312 
L 196.363438 287.431312 
z
" style="fill:#3274a1;"/>
   </g>
   <g id="patch_7">
    <path clip-path="url(#p58bc30bee9)" d="M 196.363438 340.823312 
L 414.186067 340.823312 
L 414.186067 354.171312 
L 196.363438 354.171312 
z
" style="fill:#3274a1;"/>
   </g>
   <g id="patch_8">
    <path clip-path="url(#p58bc30bee9)" d="M 196.363438 407.563312 
L 240.623284 407.563312 
L 240.623284 420.911313 
L 196.363438 420.911313 
z
" style="fill:#3274a1;"/>
   </g>
   <g id="patch_9">
    <path clip-path="url(#p58bc30bee9)" d="M 196.363438 474.303313 
L 339.171644 474.303313 
L 339.171644 487.651313 
L 196.363438 487.651313 
z
" style="fill:#3274a1;"/>
   </g>
   <g id="patch_10">
    <path clip-path="url(#p58bc30bee9)" d="M 196.363438 541.043312 
L 501.234889 541.043312 
L 501.234889 554.391312 
L 196.363438 554.391312 
z
" style="fill:#3274a1;"/>
   </g>
   <g id="patch_11">
    <path clip-path="url(#p58bc30bee9)" d="M 196.363438 607.783312 
L 342.380817 607.783312 
L 342.380817 621.131312 
L 196.363438 621.131312 
z
" style="fill:#3274a1;"/>
   </g>
   <g id="patch_12">
    <path clip-path="url(#p58bc30bee9)" d="M 196.363438 674.523312 
L 514.339013 674.523312 
L 514.339013 687.871312 
L 196.363438 687.871312 
z
" style="fill:#3274a1;"/>
   </g>
   <g id="patch_13">
    <path clip-path="url(#p58bc30bee9)" d="M 196.363438 87.211312 
L 620.108012 87.211312 
L 620.108012 100.559312 
L 196.363438 100.559312 
z
" style="fill:#e1812c;"/>
   </g>
   <g id="patch_14">
    <path clip-path="url(#p58bc30bee9)" d="M 196.363438 153.951312 
L 847.29073 153.951312 
L 847.29073 167.299312 
L 196.363438 167.299312 
z
" style="fill:#e1812c;"/>
   </g>
   <g id="patch_15">
    <path clip-path="url(#p58bc30bee9)" d="M 196.363438 220.691312 
L 307.347343 220.691312 
L 307.347343 234.039312 
L 196.363438 234.039312 
z
" style="fill:#e1812c;"/>
   </g>
   <g id="patch_16">
    <path clip-path="url(#p58bc30bee9)" d="M 196.363438 287.431312 
L 307.213628 287.431312 
L 307.213628 300.779312 
L 196.363438 300.779312 
z
" style="fill:#e1812c;"/>
   </g>
   <g id="patch_17">
    <path clip-path="url(#p58bc30bee9)" d="M 196.363438 354.171312 
L 447.882385 354.171312 
L 447.882385 367.519312 
L 196.363438 367.519312 
z
" style="fill:#e1812c;"/>
   </g>
   <g id="patch_18">
    <path clip-path="url(#p58bc30bee9)" d="M 196.363438 420.911313 
L 236.076956 420.911313 
L 236.076956 434.259313 
L 196.363438 434.259313 
z
" style="fill:#e1812c;"/>
   </g>
   <g id="patch_19">
    <path clip-path="url(#p58bc30bee9)" d="M 196.363438 487.651313 
L 325.933804 487.651313 
L 325.933804 500.999313 
L 196.363438 500.999313 
z
" style="fill:#e1812c;"/>
   </g>
   <g id="patch_20">
    <path clip-path="url(#p58bc30bee9)" d="M 196.363438 554.391313 
L 511.798417 554.391313 
L 511.798417 567.739313 
L 196.363438 567.739313 
z
" style="fill:#e1812c;"/>
   </g>
   <g id="patch_21">
    <path clip-path="url(#p58bc30bee9)" d="M 196.363438 621.131313 
L 334.892746 621.131313 
L 334.892746 634.479312 
L 196.363438 634.479312 
z
" style="fill:#e1812c;"/>
   </g>
   <g id="patch_22">
    <path clip-path="url(#p58bc30bee9)" d="M 196.363438 687.871313 
L 526.640843 687.871313 
L 526.640843 701.219313 
L 196.363438 701.219313 
z
" style="fill:#e1812c;"/>
   </g>
   <g id="patch_23">
    <path clip-path="url(#p58bc30bee9)" d="M 196.363438 100.559312 
L 579.725916 100.559312 
L 579.725916 113.907312 
L 196.363438 113.907312 
z
" style="fill:#3a923a;"/>
   </g>
   <g id="patch_24">
    <path clip-path="url(#p58bc30bee9)" d="M 196.363438 167.299312 
L 771.607729 167.299312 
L 771.607729 180.647312 
L 196.363438 180.647312 
z
" style="fill:#3a923a;"/>
   </g>
   <g id="patch_25">
    <path clip-path="url(#p58bc30bee9)" d="M 196.363438 234.039312 
L 365.11246 234.039312 
L 365.11246 247.387312 
L 196.363438 247.387312 
z
" style="fill:#3a923a;"/>
   </g>
   <g id="patch_26">
    <path clip-path="url(#p58bc30bee9)" d="M 196.363438 300.779312 
L 270.040705 300.779312 
L 270.040705 314.127312 
L 196.363438 314.127312 
z
" style="fill:#3a923a;"/>
   </g>
   <g id="patch_27">
    <path clip-path="url(#p58bc30bee9)" d="M 196.363438 367.519312 
L 419.267258 367.519312 
L 419.267258 380.867312 
L 196.363438 380.867312 
z
" style="fill:#3a923a;"/>
   </g>
   <g id="patch_28">
    <path clip-path="url(#p58bc30bee9)" d="M 196.363438 434.259312 
L 241.158146 434.259312 
L 241.158146 447.607312 
L 196.363438 447.607312 
z
" style="fill:#3a923a;"/>
   </g>
   <g id="patch_29">
    <path clip-path="url(#p58bc30bee9)" d="M 196.363438 500.999312 
L 356.019803 500.999312 
L 356.019803 514.347313 
L 196.363438 514.347313 
z
" style="fill:#3a923a;"/>
   </g>
   <g id="patch_30">
    <path clip-path="url(#p58bc30bee9)" d="M 196.363438 567.739312 
L 575.179588 567.739312 
L 575.179588 581.087313 
L 196.363438 581.087313 
z
" style="fill:#3a923a;"/>
   </g>
   <g id="patch_31">
    <path clip-path="url(#p58bc30bee9)" d="M 196.363438 634.479312 
L 303.603308 634.479312 
L 303.603308 647.827312 
L 196.363438 647.827312 
z
" style="fill:#3a923a;"/>
   </g>
   <g id="patch_32">
    <path clip-path="url(#p58bc30bee9)" d="M 196.363438 701.219313 
L 456.44018 701.219313 
L 456.44018 714.567312 
L 196.363438 714.567312 
z
" style="fill:#3a923a;"/>
   </g>
   <g id="patch_33">
    <path clip-path="url(#p58bc30bee9)" d="M 196.363438 113.907312 
L 619.840581 113.907312 
L 619.840581 127.255312 
L 196.363438 127.255312 
z
" style="fill:#c03d3e;"/>
   </g>
   <g id="patch_34">
    <path clip-path="url(#p58bc30bee9)" d="M 196.363438 180.647312 
L 941.961338 180.647312 
L 941.961338 193.995313 
L 196.363438 193.995313 
z
" style="fill:#c03d3e;"/>
   </g>
   <g id="patch_35">
    <path clip-path="url(#p58bc30bee9)" d="M 196.363438 247.387312 
L 392.524148 247.387312 
L 392.524148 260.735312 
L 196.363438 260.735312 
z
" style="fill:#c03d3e;"/>
   </g>
   <g id="patch_36">
    <path clip-path="url(#p58bc30bee9)" d="M 196.363438 314.127312 
L 274.854465 314.127312 
L 274.854465 327.475312 
L 196.363438 327.475312 
z
" style="fill:#c03d3e;"/>
   </g>
   <g id="patch_37">
    <path clip-path="url(#p58bc30bee9)" d="M 196.363438 380.867312 
L 414.587213 380.867312 
L 414.587213 394.215312 
L 196.363438 394.215312 
z
" style="fill:#c03d3e;"/>
   </g>
   <g id="patch_38">
    <path clip-path="url(#p58bc30bee9)" d="M 196.363438 447.607312 
L 275.924189 447.607312 
L 275.924189 460.955312 
L 196.363438 460.955312 
z
" style="fill:#c03d3e;"/>
   </g>
   <g id="patch_39">
    <path clip-path="url(#p58bc30bee9)" d="M 196.363438 514.347313 
L 336.631048 514.347313 
L 336.631048 527.695312 
L 196.363438 527.695312 
z
" style="fill:#c03d3e;"/>
   </g>
   <g id="patch_40">
    <path clip-path="url(#p58bc30bee9)" d="M 196.363438 581.087313 
L 488.531912 581.087313 
L 488.531912 594.435313 
L 196.363438 594.435313 
z
" style="fill:#c03d3e;"/>
   </g>
   <g id="patch_41">
    <path clip-path="url(#p58bc30bee9)" d="M 196.363438 647.827313 
L 310.823947 647.827313 
L 310.823947 661.175313 
L 196.363438 661.175313 
z
" style="fill:#c03d3e;"/>
   </g>
   <g id="patch_42">
    <path clip-path="url(#p58bc30bee9)" d="M 196.363438 714.567313 
L 468.340864 714.567313 
L 468.340864 727.915313 
L 196.363438 727.915313 
z
" style="fill:#c03d3e;"/>
   </g>
   <g id="matplotlib.axis_1">
    <g id="xtick_1">
     <g id="line2d_1">
      <defs>
       <path d="M 0 0 
L 0 3.5 
" id="mdcae9b6d0a" style="stroke:#000000;stroke-width:0.8;"/>
      </defs>
      <g>
       <use style="stroke:#000000;stroke-width:0.8;" x="196.363438" xlink:href="#mdcae9b6d0a" y="734.589313"/>
      </g>
     </g>
     <g id="text_1">
      <!-- 0 -->
      <defs>
       <path d="M 31.78125 66.40625 
Q 24.171875 66.40625 20.328125 58.90625 
Q 16.5 51.421875 16.5 36.375 
Q 16.5 21.390625 20.328125 13.890625 
Q 24.171875 6.390625 31.78125 6.390625 
Q 39.453125 6.390625 43.28125 13.890625 
Q 47.125 21.390625 47.125 36.375 
Q 47.125 51.421875 43.28125 58.90625 
Q 39.453125 66.40625 31.78125 66.40625 
z
M 31.78125 74.21875 
Q 44.046875 74.21875 50.515625 64.515625 
Q 56.984375 54.828125 56.984375 36.375 
Q 56.984375 17.96875 50.515625 8.265625 
Q 44.046875 -1.421875 31.78125 -1.421875 
Q 19.53125 -1.421875 13.0625 8.265625 
Q 6.59375 17.96875 6.59375 36.375 
Q 6.59375 54.828125 13.0625 64.515625 
Q 19.53125 74.21875 31.78125 74.21875 
z
" id="DejaVuSans-48"/>
      </defs>
      <g transform="translate(193.182188 749.18775)scale(0.1 -0.1)">
       <use xlink:href="#DejaVuSans-48"/>
      </g>
     </g>
    </g>
    <g id="xtick_2">
     <g id="line2d_2">
      <g>
       <use style="stroke:#000000;stroke-width:0.8;" x="330.078986" xlink:href="#mdcae9b6d0a" y="734.589313"/>
      </g>
     </g>
     <g id="text_2">
      <!-- 10 -->
      <defs>
       <path d="M 12.40625 8.296875 
L 28.515625 8.296875 
L 28.515625 63.921875 
L 10.984375 60.40625 
L 10.984375 69.390625 
L 28.421875 72.90625 
L 38.28125 72.90625 
L 38.28125 8.296875 
L 54.390625 8.296875 
L 54.390625 0 
L 12.40625 0 
z
" id="DejaVuSans-49"/>
      </defs>
      <g transform="translate(323.716486 749.18775)scale(0.1 -0.1)">
       <use xlink:href="#DejaVuSans-49"/>
       <use x="63.623047" xlink:href="#DejaVuSans-48"/>
      </g>
     </g>
    </g>
    <g id="xtick_3">
     <g id="line2d_3">
      <g>
       <use style="stroke:#000000;stroke-width:0.8;" x="463.794535" xlink:href="#mdcae9b6d0a" y="734.589313"/>
      </g>
     </g>
     <g id="text_3">
      <!-- 20 -->
      <defs>
       <path d="M 19.1875 8.296875 
L 53.609375 8.296875 
L 53.609375 0 
L 7.328125 0 
L 7.328125 8.296875 
Q 12.9375 14.109375 22.625 23.890625 
Q 32.328125 33.6875 34.8125 36.53125 
Q 39.546875 41.84375 41.421875 45.53125 
Q 43.3125 49.21875 43.3125 52.78125 
Q 43.3125 58.59375 39.234375 62.25 
Q 35.15625 65.921875 28.609375 65.921875 
Q 23.96875 65.921875 18.8125 64.3125 
Q 13.671875 62.703125 7.8125 59.421875 
L 7.8125 69.390625 
Q 13.765625 71.78125 18.9375 73 
Q 24.125 74.21875 28.421875 74.21875 
Q 39.75 74.21875 46.484375 68.546875 
Q 53.21875 62.890625 53.21875 53.421875 
Q 53.21875 48.921875 51.53125 44.890625 
Q 49.859375 40.875 45.40625 35.40625 
Q 44.1875 33.984375 37.640625 27.21875 
Q 31.109375 20.453125 19.1875 8.296875 
z
" id="DejaVuSans-50"/>
      </defs>
      <g transform="translate(457.432035 749.18775)scale(0.1 -0.1)">
       <use xlink:href="#DejaVuSans-50"/>
       <use x="63.623047" xlink:href="#DejaVuSans-48"/>
      </g>
     </g>
    </g>
    <g id="xtick_4">
     <g id="line2d_4">
      <g>
       <use style="stroke:#000000;stroke-width:0.8;" x="597.510084" xlink:href="#mdcae9b6d0a" y="734.589313"/>
      </g>
     </g>
     <g id="text_4">
      <!-- 30 -->
      <defs>
       <path d="M 40.578125 39.3125 
Q 47.65625 37.796875 51.625 33 
Q 55.609375 28.21875 55.609375 21.1875 
Q 55.609375 10.40625 48.1875 4.484375 
Q 40.765625 -1.421875 27.09375 -1.421875 
Q 22.515625 -1.421875 17.65625 -0.515625 
Q 12.796875 0.390625 7.625 2.203125 
L 7.625 11.71875 
Q 11.71875 9.328125 16.59375 8.109375 
Q 21.484375 6.890625 26.8125 6.890625 
Q 36.078125 6.890625 40.9375 10.546875 
Q 45.796875 14.203125 45.796875 21.1875 
Q 45.796875 27.640625 41.28125 31.265625 
Q 36.765625 34.90625 28.71875 34.90625 
L 20.21875 34.90625 
L 20.21875 43.015625 
L 29.109375 43.015625 
Q 36.375 43.015625 40.234375 45.921875 
Q 44.09375 48.828125 44.09375 54.296875 
Q 44.09375 59.90625 40.109375 62.90625 
Q 36.140625 65.921875 28.71875 65.921875 
Q 24.65625 65.921875 20.015625 65.03125 
Q 15.375 64.15625 9.8125 62.3125 
L 9.8125 71.09375 
Q 15.4375 72.65625 20.34375 73.4375 
Q 25.25 74.21875 29.59375 74.21875 
Q 40.828125 74.21875 47.359375 69.109375 
Q 53.90625 64.015625 53.90625 55.328125 
Q 53.90625 49.265625 50.4375 45.09375 
Q 46.96875 40.921875 40.578125 39.3125 
z
" id="DejaVuSans-51"/>
      </defs>
      <g transform="translate(591.147584 749.18775)scale(0.1 -0.1)">
       <use xlink:href="#DejaVuSans-51"/>
       <use x="63.623047" xlink:href="#DejaVuSans-48"/>
      </g>
     </g>
    </g>
    <g id="xtick_5">
     <g id="line2d_5">
      <g>
       <use style="stroke:#000000;stroke-width:0.8;" x="731.225633" xlink:href="#mdcae9b6d0a" y="734.589313"/>
      </g>
     </g>
     <g id="text_5">
      <!-- 40 -->
      <defs>
       <path d="M 37.796875 64.3125 
L 12.890625 25.390625 
L 37.796875 25.390625 
z
M 35.203125 72.90625 
L 47.609375 72.90625 
L 47.609375 25.390625 
L 58.015625 25.390625 
L 58.015625 17.1875 
L 47.609375 17.1875 
L 47.609375 0 
L 37.796875 0 
L 37.796875 17.1875 
L 4.890625 17.1875 
L 4.890625 26.703125 
z
" id="DejaVuSans-52"/>
      </defs>
      <g transform="translate(724.863133 749.18775)scale(0.1 -0.1)">
       <use xlink:href="#DejaVuSans-52"/>
       <use x="63.623047" xlink:href="#DejaVuSans-48"/>
      </g>
     </g>
    </g>
    <g id="xtick_6">
     <g id="line2d_6">
      <g>
       <use style="stroke:#000000;stroke-width:0.8;" x="864.941182" xlink:href="#mdcae9b6d0a" y="734.589313"/>
      </g>
     </g>
     <g id="text_6">
      <!-- 50 -->
      <defs>
       <path d="M 10.796875 72.90625 
L 49.515625 72.90625 
L 49.515625 64.59375 
L 19.828125 64.59375 
L 19.828125 46.734375 
Q 21.96875 47.46875 24.109375 47.828125 
Q 26.265625 48.1875 28.421875 48.1875 
Q 40.625 48.1875 47.75 41.5 
Q 54.890625 34.8125 54.890625 23.390625 
Q 54.890625 11.625 47.5625 5.09375 
Q 40.234375 -1.421875 26.90625 -1.421875 
Q 22.3125 -1.421875 17.546875 -0.640625 
Q 12.796875 0.140625 7.71875 1.703125 
L 7.71875 11.625 
Q 12.109375 9.234375 16.796875 8.0625 
Q 21.484375 6.890625 26.703125 6.890625 
Q 35.15625 6.890625 40.078125 11.328125 
Q 45.015625 15.765625 45.015625 23.390625 
Q 45.015625 31 40.078125 35.4375 
Q 35.15625 39.890625 26.703125 39.890625 
Q 22.75 39.890625 18.8125 39.015625 
Q 14.890625 38.140625 10.796875 36.28125 
z
" id="DejaVuSans-53"/>
      </defs>
      <g transform="translate(858.578682 749.18775)scale(0.1 -0.1)">
       <use xlink:href="#DejaVuSans-53"/>
       <use x="63.623047" xlink:href="#DejaVuSans-48"/>
      </g>
     </g>
    </g>
    <g id="text_7">
     <!-- Percentage -->
     <defs>
      <path d="M 19.671875 64.796875 
L 19.671875 37.40625 
L 32.078125 37.40625 
Q 38.96875 37.40625 42.71875 40.96875 
Q 46.484375 44.53125 46.484375 51.125 
Q 46.484375 57.671875 42.71875 61.234375 
Q 38.96875 64.796875 32.078125 64.796875 
z
M 9.8125 72.90625 
L 32.078125 72.90625 
Q 44.34375 72.90625 50.609375 67.359375 
Q 56.890625 61.8125 56.890625 51.125 
Q 56.890625 40.328125 50.609375 34.8125 
Q 44.34375 29.296875 32.078125 29.296875 
L 19.671875 29.296875 
L 19.671875 0 
L 9.8125 0 
z
" id="DejaVuSans-80"/>
      <path d="M 56.203125 29.59375 
L 56.203125 25.203125 
L 14.890625 25.203125 
Q 15.484375 15.921875 20.484375 11.0625 
Q 25.484375 6.203125 34.421875 6.203125 
Q 39.59375 6.203125 44.453125 7.46875 
Q 49.3125 8.734375 54.109375 11.28125 
L 54.109375 2.78125 
Q 49.265625 0.734375 44.1875 -0.34375 
Q 39.109375 -1.421875 33.890625 -1.421875 
Q 20.796875 -1.421875 13.15625 6.1875 
Q 5.515625 13.8125 5.515625 26.8125 
Q 5.515625 40.234375 12.765625 48.109375 
Q 20.015625 56 32.328125 56 
Q 43.359375 56 49.78125 48.890625 
Q 56.203125 41.796875 56.203125 29.59375 
z
M 47.21875 32.234375 
Q 47.125 39.59375 43.09375 43.984375 
Q 39.0625 48.390625 32.421875 48.390625 
Q 24.90625 48.390625 20.390625 44.140625 
Q 15.875 39.890625 15.1875 32.171875 
z
" id="DejaVuSans-101"/>
      <path d="M 41.109375 46.296875 
Q 39.59375 47.171875 37.8125 47.578125 
Q 36.03125 48 33.890625 48 
Q 26.265625 48 22.1875 43.046875 
Q 18.109375 38.09375 18.109375 28.8125 
L 18.109375 0 
L 9.078125 0 
L 9.078125 54.6875 
L 18.109375 54.6875 
L 18.109375 46.1875 
Q 20.953125 51.171875 25.484375 53.578125 
Q 30.03125 56 36.53125 56 
Q 37.453125 56 38.578125 55.875 
Q 39.703125 55.765625 41.0625 55.515625 
z
" id="DejaVuSans-114"/>
      <path d="M 48.78125 52.59375 
L 48.78125 44.1875 
Q 44.96875 46.296875 41.140625 47.34375 
Q 37.3125 48.390625 33.40625 48.390625 
Q 24.65625 48.390625 19.8125 42.84375 
Q 14.984375 37.3125 14.984375 27.296875 
Q 14.984375 17.28125 19.8125 11.734375 
Q 24.65625 6.203125 33.40625 6.203125 
Q 37.3125 6.203125 41.140625 7.25 
Q 44.96875 8.296875 48.78125 10.40625 
L 48.78125 2.09375 
Q 45.015625 0.34375 40.984375 -0.53125 
Q 36.96875 -1.421875 32.421875 -1.421875 
Q 20.0625 -1.421875 12.78125 6.34375 
Q 5.515625 14.109375 5.515625 27.296875 
Q 5.515625 40.671875 12.859375 48.328125 
Q 20.21875 56 33.015625 56 
Q 37.15625 56 41.109375 55.140625 
Q 45.0625 54.296875 48.78125 52.59375 
z
" id="DejaVuSans-99"/>
      <path d="M 54.890625 33.015625 
L 54.890625 0 
L 45.90625 0 
L 45.90625 32.71875 
Q 45.90625 40.484375 42.875 44.328125 
Q 39.84375 48.1875 33.796875 48.1875 
Q 26.515625 48.1875 22.3125 43.546875 
Q 18.109375 38.921875 18.109375 30.90625 
L 18.109375 0 
L 9.078125 0 
L 9.078125 54.6875 
L 18.109375 54.6875 
L 18.109375 46.1875 
Q 21.34375 51.125 25.703125 53.5625 
Q 30.078125 56 35.796875 56 
Q 45.21875 56 50.046875 50.171875 
Q 54.890625 44.34375 54.890625 33.015625 
z
" id="DejaVuSans-110"/>
      <path d="M 18.3125 70.21875 
L 18.3125 54.6875 
L 36.8125 54.6875 
L 36.8125 47.703125 
L 18.3125 47.703125 
L 18.3125 18.015625 
Q 18.3125 11.328125 20.140625 9.421875 
Q 21.96875 7.515625 27.59375 7.515625 
L 36.8125 7.515625 
L 36.8125 0 
L 27.59375 0 
Q 17.1875 0 13.234375 3.875 
Q 9.28125 7.765625 9.28125 18.015625 
L 9.28125 47.703125 
L 2.6875 47.703125 
L 2.6875 54.6875 
L 9.28125 54.6875 
L 9.28125 70.21875 
z
" id="DejaVuSans-116"/>
      <path d="M 34.28125 27.484375 
Q 23.390625 27.484375 19.1875 25 
Q 14.984375 22.515625 14.984375 16.5 
Q 14.984375 11.71875 18.140625 8.90625 
Q 21.296875 6.109375 26.703125 6.109375 
Q 34.1875 6.109375 38.703125 11.40625 
Q 43.21875 16.703125 43.21875 25.484375 
L 43.21875 27.484375 
z
M 52.203125 31.203125 
L 52.203125 0 
L 43.21875 0 
L 43.21875 8.296875 
Q 40.140625 3.328125 35.546875 0.953125 
Q 30.953125 -1.421875 24.3125 -1.421875 
Q 15.921875 -1.421875 10.953125 3.296875 
Q 6 8.015625 6 15.921875 
Q 6 25.140625 12.171875 29.828125 
Q 18.359375 34.515625 30.609375 34.515625 
L 43.21875 34.515625 
L 43.21875 35.40625 
Q 43.21875 41.609375 39.140625 45 
Q 35.0625 48.390625 27.6875 48.390625 
Q 23 48.390625 18.546875 47.265625 
Q 14.109375 46.140625 10.015625 43.890625 
L 10.015625 52.203125 
Q 14.9375 54.109375 19.578125 55.046875 
Q 24.21875 56 28.609375 56 
Q 40.484375 56 46.34375 49.84375 
Q 52.203125 43.703125 52.203125 31.203125 
z
" id="DejaVuSans-97"/>
      <path d="M 45.40625 27.984375 
Q 45.40625 37.75 41.375 43.109375 
Q 37.359375 48.484375 30.078125 48.484375 
Q 22.859375 48.484375 18.828125 43.109375 
Q 14.796875 37.75 14.796875 27.984375 
Q 14.796875 18.265625 18.828125 12.890625 
Q 22.859375 7.515625 30.078125 7.515625 
Q 37.359375 7.515625 41.375 12.890625 
Q 45.40625 18.265625 45.40625 27.984375 
z
M 54.390625 6.78125 
Q 54.390625 -7.171875 48.1875 -13.984375 
Q 42 -20.796875 29.203125 -20.796875 
Q 24.46875 -20.796875 20.265625 -20.09375 
Q 16.0625 -19.390625 12.109375 -17.921875 
L 12.109375 -9.1875 
Q 16.0625 -11.328125 19.921875 -12.34375 
Q 23.78125 -13.375 27.78125 -13.375 
Q 36.625 -13.375 41.015625 -8.765625 
Q 45.40625 -4.15625 45.40625 5.171875 
L 45.40625 9.625 
Q 42.625 4.78125 38.28125 2.390625 
Q 33.9375 0 27.875 0 
Q 17.828125 0 11.671875 7.65625 
Q 5.515625 15.328125 5.515625 27.984375 
Q 5.515625 40.671875 11.671875 48.328125 
Q 17.828125 56 27.875 56 
Q 33.9375 56 38.28125 53.609375 
Q 42.625 51.21875 45.40625 46.390625 
L 45.40625 54.6875 
L 54.390625 54.6875 
z
" id="DejaVuSans-103"/>
     </defs>
     <g transform="translate(548.430617 765.90525)scale(0.14 -0.14)">
      <use xlink:href="#DejaVuSans-80"/>
      <use x="56.677734" xlink:href="#DejaVuSans-101"/>
      <use x="118.201172" xlink:href="#DejaVuSans-114"/>
      <use x="157.064453" xlink:href="#DejaVuSans-99"/>
      <use x="212.044922" xlink:href="#DejaVuSans-101"/>
      <use x="273.568359" xlink:href="#DejaVuSans-110"/>
      <use x="336.947266" xlink:href="#DejaVuSans-116"/>
      <use x="376.15625" xlink:href="#DejaVuSans-97"/>
      <use x="437.435547" xlink:href="#DejaVuSans-103"/>
      <use x="500.912109" xlink:href="#DejaVuSans-101"/>
     </g>
    </g>
   </g>
   <g id="matplotlib.axis_2">
    <g id="ytick_1">
     <g id="line2d_7">
      <defs>
       <path d="M 0 0 
L -3.5 0 
" id="mefb58f1213" style="stroke:#000000;stroke-width:0.8;"/>
      </defs>
      <g>
       <use style="stroke:#000000;stroke-width:0.8;" x="196.363438" xlink:href="#mefb58f1213" y="100.559312"/>
      </g>
     </g>
     <g id="text_8">
      <!-- ultra-broadband -->
      <defs>
       <path d="M 8.5 21.578125 
L 8.5 54.6875 
L 17.484375 54.6875 
L 17.484375 21.921875 
Q 17.484375 14.15625 20.5 10.265625 
Q 23.53125 6.390625 29.59375 6.390625 
Q 36.859375 6.390625 41.078125 11.03125 
Q 45.3125 15.671875 45.3125 23.6875 
L 45.3125 54.6875 
L 54.296875 54.6875 
L 54.296875 0 
L 45.3125 0 
L 45.3125 8.40625 
Q 42.046875 3.421875 37.71875 1 
Q 33.40625 -1.421875 27.6875 -1.421875 
Q 18.265625 -1.421875 13.375 4.4375 
Q 8.5 10.296875 8.5 21.578125 
z
M 31.109375 56 
z
" id="DejaVuSans-117"/>
       <path d="M 9.421875 75.984375 
L 18.40625 75.984375 
L 18.40625 0 
L 9.421875 0 
z
" id="DejaVuSans-108"/>
       <path d="M 4.890625 31.390625 
L 31.203125 31.390625 
L 31.203125 23.390625 
L 4.890625 23.390625 
z
" id="DejaVuSans-45"/>
       <path d="M 48.6875 27.296875 
Q 48.6875 37.203125 44.609375 42.84375 
Q 40.53125 48.484375 33.40625 48.484375 
Q 26.265625 48.484375 22.1875 42.84375 
Q 18.109375 37.203125 18.109375 27.296875 
Q 18.109375 17.390625 22.1875 11.75 
Q 26.265625 6.109375 33.40625 6.109375 
Q 40.53125 6.109375 44.609375 11.75 
Q 48.6875 17.390625 48.6875 27.296875 
z
M 18.109375 46.390625 
Q 20.953125 51.265625 25.265625 53.625 
Q 29.59375 56 35.59375 56 
Q 45.5625 56 51.78125 48.09375 
Q 58.015625 40.1875 58.015625 27.296875 
Q 58.015625 14.40625 51.78125 6.484375 
Q 45.5625 -1.421875 35.59375 -1.421875 
Q 29.59375 -1.421875 25.265625 0.953125 
Q 20.953125 3.328125 18.109375 8.203125 
L 18.109375 0 
L 9.078125 0 
L 9.078125 75.984375 
L 18.109375 75.984375 
z
" id="DejaVuSans-98"/>
       <path d="M 30.609375 48.390625 
Q 23.390625 48.390625 19.1875 42.75 
Q 14.984375 37.109375 14.984375 27.296875 
Q 14.984375 17.484375 19.15625 11.84375 
Q 23.34375 6.203125 30.609375 6.203125 
Q 37.796875 6.203125 41.984375 11.859375 
Q 46.1875 17.53125 46.1875 27.296875 
Q 46.1875 37.015625 41.984375 42.703125 
Q 37.796875 48.390625 30.609375 48.390625 
z
M 30.609375 56 
Q 42.328125 56 49.015625 48.375 
Q 55.71875 40.765625 55.71875 27.296875 
Q 55.71875 13.875 49.015625 6.21875 
Q 42.328125 -1.421875 30.609375 -1.421875 
Q 18.84375 -1.421875 12.171875 6.21875 
Q 5.515625 13.875 5.515625 27.296875 
Q 5.515625 40.765625 12.171875 48.375 
Q 18.84375 56 30.609375 56 
z
" id="DejaVuSans-111"/>
       <path d="M 45.40625 46.390625 
L 45.40625 75.984375 
L 54.390625 75.984375 
L 54.390625 0 
L 45.40625 0 
L 45.40625 8.203125 
Q 42.578125 3.328125 38.25 0.953125 
Q 33.9375 -1.421875 27.875 -1.421875 
Q 17.96875 -1.421875 11.734375 6.484375 
Q 5.515625 14.40625 5.515625 27.296875 
Q 5.515625 40.1875 11.734375 48.09375 
Q 17.96875 56 27.875 56 
Q 33.9375 56 38.25 53.625 
Q 42.578125 51.265625 45.40625 46.390625 
z
M 14.796875 27.296875 
Q 14.796875 17.390625 18.875 11.75 
Q 22.953125 6.109375 30.078125 6.109375 
Q 37.203125 6.109375 41.296875 11.75 
Q 45.40625 17.390625 45.40625 27.296875 
Q 45.40625 37.203125 41.296875 42.84375 
Q 37.203125 48.484375 30.078125 48.484375 
Q 22.953125 48.484375 18.875 42.84375 
Q 14.796875 37.203125 14.796875 27.296875 
z
" id="DejaVuSans-100"/>
      </defs>
      <g transform="translate(108.488438 104.358531)scale(0.1 -0.1)">
       <use xlink:href="#DejaVuSans-117"/>
       <use x="63.378906" xlink:href="#DejaVuSans-108"/>
       <use x="91.162109" xlink:href="#DejaVuSans-116"/>
       <use x="130.371094" xlink:href="#DejaVuSans-114"/>
       <use x="171.484375" xlink:href="#DejaVuSans-97"/>
       <use x="232.763672" xlink:href="#DejaVuSans-45"/>
       <use x="268.847656" xlink:href="#DejaVuSans-98"/>
       <use x="332.324219" xlink:href="#DejaVuSans-114"/>
       <use x="371.1875" xlink:href="#DejaVuSans-111"/>
       <use x="432.369141" xlink:href="#DejaVuSans-97"/>
       <use x="493.648438" xlink:href="#DejaVuSans-100"/>
       <use x="557.125" xlink:href="#DejaVuSans-98"/>
       <use x="620.601562" xlink:href="#DejaVuSans-97"/>
       <use x="681.880859" xlink:href="#DejaVuSans-110"/>
       <use x="745.259766" xlink:href="#DejaVuSans-100"/>
      </g>
     </g>
    </g>
    <g id="ytick_2">
     <g id="line2d_8">
      <g>
       <use style="stroke:#000000;stroke-width:0.8;" x="196.363438" xlink:href="#mefb58f1213" y="167.299312"/>
      </g>
     </g>
     <g id="text_9">
      <!-- funding and tax incentives -->
      <defs>
       <path d="M 37.109375 75.984375 
L 37.109375 68.5 
L 28.515625 68.5 
Q 23.6875 68.5 21.796875 66.546875 
Q 19.921875 64.59375 19.921875 59.515625 
L 19.921875 54.6875 
L 34.71875 54.6875 
L 34.71875 47.703125 
L 19.921875 47.703125 
L 19.921875 0 
L 10.890625 0 
L 10.890625 47.703125 
L 2.296875 47.703125 
L 2.296875 54.6875 
L 10.890625 54.6875 
L 10.890625 58.5 
Q 10.890625 67.625 15.140625 71.796875 
Q 19.390625 75.984375 28.609375 75.984375 
z
" id="DejaVuSans-102"/>
       <path d="M 9.421875 54.6875 
L 18.40625 54.6875 
L 18.40625 0 
L 9.421875 0 
z
M 9.421875 75.984375 
L 18.40625 75.984375 
L 18.40625 64.59375 
L 9.421875 64.59375 
z
" id="DejaVuSans-105"/>
       <path id="DejaVuSans-32"/>
       <path d="M 54.890625 54.6875 
L 35.109375 28.078125 
L 55.90625 0 
L 45.3125 0 
L 29.390625 21.484375 
L 13.484375 0 
L 2.875 0 
L 24.125 28.609375 
L 4.6875 54.6875 
L 15.28125 54.6875 
L 29.78125 35.203125 
L 44.28125 54.6875 
z
" id="DejaVuSans-120"/>
       <path d="M 2.984375 54.6875 
L 12.5 54.6875 
L 29.59375 8.796875 
L 46.6875 54.6875 
L 56.203125 54.6875 
L 35.6875 0 
L 23.484375 0 
z
" id="DejaVuSans-118"/>
       <path d="M 44.28125 53.078125 
L 44.28125 44.578125 
Q 40.484375 46.53125 36.375 47.5 
Q 32.28125 48.484375 27.875 48.484375 
Q 21.1875 48.484375 17.84375 46.4375 
Q 14.5 44.390625 14.5 40.28125 
Q 14.5 37.15625 16.890625 35.375 
Q 19.28125 33.59375 26.515625 31.984375 
L 29.59375 31.296875 
Q 39.15625 29.25 43.1875 25.515625 
Q 47.21875 21.78125 47.21875 15.09375 
Q 47.21875 7.46875 41.1875 3.015625 
Q 35.15625 -1.421875 24.609375 -1.421875 
Q 20.21875 -1.421875 15.453125 -0.5625 
Q 10.6875 0.296875 5.421875 2 
L 5.421875 11.28125 
Q 10.40625 8.6875 15.234375 7.390625 
Q 20.0625 6.109375 24.8125 6.109375 
Q 31.15625 6.109375 34.5625 8.28125 
Q 37.984375 10.453125 37.984375 14.40625 
Q 37.984375 18.0625 35.515625 20.015625 
Q 33.0625 21.96875 24.703125 23.78125 
L 21.578125 24.515625 
Q 13.234375 26.265625 9.515625 29.90625 
Q 5.8125 33.546875 5.8125 39.890625 
Q 5.8125 47.609375 11.28125 51.796875 
Q 16.75 56 26.8125 56 
Q 31.78125 56 36.171875 55.265625 
Q 40.578125 54.546875 44.28125 53.078125 
z
" id="DejaVuSans-115"/>
      </defs>
      <g transform="translate(55.955625 171.098531)scale(0.1 -0.1)">
       <use xlink:href="#DejaVuSans-102"/>
       <use x="35.205078" xlink:href="#DejaVuSans-117"/>
       <use x="98.583984" xlink:href="#DejaVuSans-110"/>
       <use x="161.962891" xlink:href="#DejaVuSans-100"/>
       <use x="225.439453" xlink:href="#DejaVuSans-105"/>
       <use x="253.222656" xlink:href="#DejaVuSans-110"/>
       <use x="316.601562" xlink:href="#DejaVuSans-103"/>
       <use x="380.078125" xlink:href="#DejaVuSans-32"/>
       <use x="411.865234" xlink:href="#DejaVuSans-97"/>
       <use x="473.144531" xlink:href="#DejaVuSans-110"/>
       <use x="536.523438" xlink:href="#DejaVuSans-100"/>
       <use x="600" xlink:href="#DejaVuSans-32"/>
       <use x="631.787109" xlink:href="#DejaVuSans-116"/>
       <use x="670.996094" xlink:href="#DejaVuSans-97"/>
       <use x="732.275391" xlink:href="#DejaVuSans-120"/>
       <use x="791.455078" xlink:href="#DejaVuSans-32"/>
       <use x="823.242188" xlink:href="#DejaVuSans-105"/>
       <use x="851.025391" xlink:href="#DejaVuSans-110"/>
       <use x="914.404297" xlink:href="#DejaVuSans-99"/>
       <use x="969.384766" xlink:href="#DejaVuSans-101"/>
       <use x="1030.908203" xlink:href="#DejaVuSans-110"/>
       <use x="1094.287109" xlink:href="#DejaVuSans-116"/>
       <use x="1133.496094" xlink:href="#DejaVuSans-105"/>
       <use x="1161.279297" xlink:href="#DejaVuSans-118"/>
       <use x="1220.458984" xlink:href="#DejaVuSans-101"/>
       <use x="1281.982422" xlink:href="#DejaVuSans-115"/>
      </g>
     </g>
    </g>
    <g id="ytick_3">
     <g id="line2d_9">
      <g>
       <use style="stroke:#000000;stroke-width:0.8;" x="196.363438" xlink:href="#mefb58f1213" y="234.039312"/>
      </g>
     </g>
     <g id="text_10">
      <!-- digital initiative of P.A. -->
      <defs>
       <path d="M 10.6875 12.40625 
L 21 12.40625 
L 21 0 
L 10.6875 0 
z
" id="DejaVuSans-46"/>
       <path d="M 34.1875 63.1875 
L 20.796875 26.90625 
L 47.609375 26.90625 
z
M 28.609375 72.90625 
L 39.796875 72.90625 
L 67.578125 0 
L 57.328125 0 
L 50.6875 18.703125 
L 17.828125 18.703125 
L 11.1875 0 
L 0.78125 0 
z
" id="DejaVuSans-65"/>
      </defs>
      <g transform="translate(78.130625 237.838531)scale(0.1 -0.1)">
       <use xlink:href="#DejaVuSans-100"/>
       <use x="63.476562" xlink:href="#DejaVuSans-105"/>
       <use x="91.259766" xlink:href="#DejaVuSans-103"/>
       <use x="154.736328" xlink:href="#DejaVuSans-105"/>
       <use x="182.519531" xlink:href="#DejaVuSans-116"/>
       <use x="221.728516" xlink:href="#DejaVuSans-97"/>
       <use x="283.007812" xlink:href="#DejaVuSans-108"/>
       <use x="310.791016" xlink:href="#DejaVuSans-32"/>
       <use x="342.578125" xlink:href="#DejaVuSans-105"/>
       <use x="370.361328" xlink:href="#DejaVuSans-110"/>
       <use x="433.740234" xlink:href="#DejaVuSans-105"/>
       <use x="461.523438" xlink:href="#DejaVuSans-116"/>
       <use x="500.732422" xlink:href="#DejaVuSans-105"/>
       <use x="528.515625" xlink:href="#DejaVuSans-97"/>
       <use x="589.794922" xlink:href="#DejaVuSans-116"/>
       <use x="629.003906" xlink:href="#DejaVuSans-105"/>
       <use x="656.787109" xlink:href="#DejaVuSans-118"/>
       <use x="715.966797" xlink:href="#DejaVuSans-101"/>
       <use x="777.490234" xlink:href="#DejaVuSans-32"/>
       <use x="809.277344" xlink:href="#DejaVuSans-111"/>
       <use x="870.458984" xlink:href="#DejaVuSans-102"/>
       <use x="905.664062" xlink:href="#DejaVuSans-32"/>
       <use x="937.451172" xlink:href="#DejaVuSans-80"/>
       <use x="982.128906" xlink:href="#DejaVuSans-46"/>
       <use x="1013.916016" xlink:href="#DejaVuSans-65"/>
       <use x="1080.574219" xlink:href="#DejaVuSans-46"/>
      </g>
     </g>
    </g>
    <g id="ytick_4">
     <g id="line2d_10">
      <g>
       <use style="stroke:#000000;stroke-width:0.8;" x="196.363438" xlink:href="#mefb58f1213" y="300.779312"/>
      </g>
     </g>
     <g id="text_11">
      <!-- capacity to make network -->
      <defs>
       <path d="M 18.109375 8.203125 
L 18.109375 -20.796875 
L 9.078125 -20.796875 
L 9.078125 54.6875 
L 18.109375 54.6875 
L 18.109375 46.390625 
Q 20.953125 51.265625 25.265625 53.625 
Q 29.59375 56 35.59375 56 
Q 45.5625 56 51.78125 48.09375 
Q 58.015625 40.1875 58.015625 27.296875 
Q 58.015625 14.40625 51.78125 6.484375 
Q 45.5625 -1.421875 35.59375 -1.421875 
Q 29.59375 -1.421875 25.265625 0.953125 
Q 20.953125 3.328125 18.109375 8.203125 
z
M 48.6875 27.296875 
Q 48.6875 37.203125 44.609375 42.84375 
Q 40.53125 48.484375 33.40625 48.484375 
Q 26.265625 48.484375 22.1875 42.84375 
Q 18.109375 37.203125 18.109375 27.296875 
Q 18.109375 17.390625 22.1875 11.75 
Q 26.265625 6.109375 33.40625 6.109375 
Q 40.53125 6.109375 44.609375 11.75 
Q 48.6875 17.390625 48.6875 27.296875 
z
" id="DejaVuSans-112"/>
       <path d="M 32.171875 -5.078125 
Q 28.375 -14.84375 24.75 -17.8125 
Q 21.140625 -20.796875 15.09375 -20.796875 
L 7.90625 -20.796875 
L 7.90625 -13.28125 
L 13.1875 -13.28125 
Q 16.890625 -13.28125 18.9375 -11.515625 
Q 21 -9.765625 23.484375 -3.21875 
L 25.09375 0.875 
L 2.984375 54.6875 
L 12.5 54.6875 
L 29.59375 11.921875 
L 46.6875 54.6875 
L 56.203125 54.6875 
z
" id="DejaVuSans-121"/>
       <path d="M 52 44.1875 
Q 55.375 50.25 60.0625 53.125 
Q 64.75 56 71.09375 56 
Q 79.640625 56 84.28125 50.015625 
Q 88.921875 44.046875 88.921875 33.015625 
L 88.921875 0 
L 79.890625 0 
L 79.890625 32.71875 
Q 79.890625 40.578125 77.09375 44.375 
Q 74.3125 48.1875 68.609375 48.1875 
Q 61.625 48.1875 57.5625 43.546875 
Q 53.515625 38.921875 53.515625 30.90625 
L 53.515625 0 
L 44.484375 0 
L 44.484375 32.71875 
Q 44.484375 40.625 41.703125 44.40625 
Q 38.921875 48.1875 33.109375 48.1875 
Q 26.21875 48.1875 22.15625 43.53125 
Q 18.109375 38.875 18.109375 30.90625 
L 18.109375 0 
L 9.078125 0 
L 9.078125 54.6875 
L 18.109375 54.6875 
L 18.109375 46.1875 
Q 21.1875 51.21875 25.484375 53.609375 
Q 29.78125 56 35.6875 56 
Q 41.65625 56 45.828125 52.96875 
Q 50 49.953125 52 44.1875 
z
" id="DejaVuSans-109"/>
       <path d="M 9.078125 75.984375 
L 18.109375 75.984375 
L 18.109375 31.109375 
L 44.921875 54.6875 
L 56.390625 54.6875 
L 27.390625 29.109375 
L 57.625 0 
L 45.90625 0 
L 18.109375 26.703125 
L 18.109375 0 
L 9.078125 0 
z
" id="DejaVuSans-107"/>
       <path d="M 4.203125 54.6875 
L 13.1875 54.6875 
L 24.421875 12.015625 
L 35.59375 54.6875 
L 46.1875 54.6875 
L 57.421875 12.015625 
L 68.609375 54.6875 
L 77.59375 54.6875 
L 63.28125 0 
L 52.6875 0 
L 40.921875 44.828125 
L 29.109375 0 
L 18.5 0 
z
" id="DejaVuSans-119"/>
      </defs>
      <g transform="translate(59.511875 304.578531)scale(0.1 -0.1)">
       <use xlink:href="#DejaVuSans-99"/>
       <use x="54.980469" xlink:href="#DejaVuSans-97"/>
       <use x="116.259766" xlink:href="#DejaVuSans-112"/>
       <use x="179.736328" xlink:href="#DejaVuSans-97"/>
       <use x="241.015625" xlink:href="#DejaVuSans-99"/>
       <use x="295.996094" xlink:href="#DejaVuSans-105"/>
       <use x="323.779297" xlink:href="#DejaVuSans-116"/>
       <use x="362.988281" xlink:href="#DejaVuSans-121"/>
       <use x="422.167969" xlink:href="#DejaVuSans-32"/>
       <use x="453.955078" xlink:href="#DejaVuSans-116"/>
       <use x="493.164062" xlink:href="#DejaVuSans-111"/>
       <use x="554.345703" xlink:href="#DejaVuSans-32"/>
       <use x="586.132812" xlink:href="#DejaVuSans-109"/>
       <use x="683.544922" xlink:href="#DejaVuSans-97"/>
       <use x="744.824219" xlink:href="#DejaVuSans-107"/>
       <use x="799.109375" xlink:href="#DejaVuSans-101"/>
       <use x="860.632812" xlink:href="#DejaVuSans-32"/>
       <use x="892.419922" xlink:href="#DejaVuSans-110"/>
       <use x="955.798828" xlink:href="#DejaVuSans-101"/>
       <use x="1017.322266" xlink:href="#DejaVuSans-116"/>
       <use x="1056.53125" xlink:href="#DejaVuSans-119"/>
       <use x="1138.318359" xlink:href="#DejaVuSans-111"/>
       <use x="1199.5" xlink:href="#DejaVuSans-114"/>
       <use x="1240.613281" xlink:href="#DejaVuSans-107"/>
      </g>
     </g>
    </g>
    <g id="ytick_5">
     <g id="line2d_11">
      <g>
       <use style="stroke:#000000;stroke-width:0.8;" x="196.363438" xlink:href="#mefb58f1213" y="367.519312"/>
      </g>
     </g>
     <g id="text_12">
      <!-- business digitization strategy -->
      <defs>
       <path d="M 5.515625 54.6875 
L 48.1875 54.6875 
L 48.1875 46.484375 
L 14.40625 7.171875 
L 48.1875 7.171875 
L 48.1875 0 
L 4.296875 0 
L 4.296875 8.203125 
L 38.09375 47.515625 
L 5.515625 47.515625 
z
" id="DejaVuSans-122"/>
      </defs>
      <g transform="translate(42.232188 371.318531)scale(0.1 -0.1)">
       <use xlink:href="#DejaVuSans-98"/>
       <use x="63.476562" xlink:href="#DejaVuSans-117"/>
       <use x="126.855469" xlink:href="#DejaVuSans-115"/>
       <use x="178.955078" xlink:href="#DejaVuSans-105"/>
       <use x="206.738281" xlink:href="#DejaVuSans-110"/>
       <use x="270.117188" xlink:href="#DejaVuSans-101"/>
       <use x="331.640625" xlink:href="#DejaVuSans-115"/>
       <use x="383.740234" xlink:href="#DejaVuSans-115"/>
       <use x="435.839844" xlink:href="#DejaVuSans-32"/>
       <use x="467.626953" xlink:href="#DejaVuSans-100"/>
       <use x="531.103516" xlink:href="#DejaVuSans-105"/>
       <use x="558.886719" xlink:href="#DejaVuSans-103"/>
       <use x="622.363281" xlink:href="#DejaVuSans-105"/>
       <use x="650.146484" xlink:href="#DejaVuSans-116"/>
       <use x="689.355469" xlink:href="#DejaVuSans-105"/>
       <use x="717.138672" xlink:href="#DejaVuSans-122"/>
       <use x="769.628906" xlink:href="#DejaVuSans-97"/>
       <use x="830.908203" xlink:href="#DejaVuSans-116"/>
       <use x="870.117188" xlink:href="#DejaVuSans-105"/>
       <use x="897.900391" xlink:href="#DejaVuSans-111"/>
       <use x="959.082031" xlink:href="#DejaVuSans-110"/>
       <use x="1022.460938" xlink:href="#DejaVuSans-32"/>
       <use x="1054.248047" xlink:href="#DejaVuSans-115"/>
       <use x="1106.347656" xlink:href="#DejaVuSans-116"/>
       <use x="1145.556641" xlink:href="#DejaVuSans-114"/>
       <use x="1186.669922" xlink:href="#DejaVuSans-97"/>
       <use x="1247.949219" xlink:href="#DejaVuSans-116"/>
       <use x="1287.158203" xlink:href="#DejaVuSans-101"/>
       <use x="1348.681641" xlink:href="#DejaVuSans-103"/>
       <use x="1412.158203" xlink:href="#DejaVuSans-121"/>
      </g>
     </g>
    </g>
    <g id="ytick_6">
     <g id="line2d_12">
      <g>
       <use style="stroke:#000000;stroke-width:0.8;" x="196.363438" xlink:href="#mefb58f1213" y="434.259312"/>
      </g>
     </g>
     <g id="text_13">
      <!-- other factors -->
      <defs>
       <path d="M 54.890625 33.015625 
L 54.890625 0 
L 45.90625 0 
L 45.90625 32.71875 
Q 45.90625 40.484375 42.875 44.328125 
Q 39.84375 48.1875 33.796875 48.1875 
Q 26.515625 48.1875 22.3125 43.546875 
Q 18.109375 38.921875 18.109375 30.90625 
L 18.109375 0 
L 9.078125 0 
L 9.078125 75.984375 
L 18.109375 75.984375 
L 18.109375 46.1875 
Q 21.34375 51.125 25.703125 53.5625 
Q 30.078125 56 35.796875 56 
Q 45.21875 56 50.046875 50.171875 
Q 54.890625 44.34375 54.890625 33.015625 
z
" id="DejaVuSans-104"/>
      </defs>
      <g transform="translate(125.038438 438.058531)scale(0.1 -0.1)">
       <use xlink:href="#DejaVuSans-111"/>
       <use x="61.181641" xlink:href="#DejaVuSans-116"/>
       <use x="100.390625" xlink:href="#DejaVuSans-104"/>
       <use x="163.769531" xlink:href="#DejaVuSans-101"/>
       <use x="225.292969" xlink:href="#DejaVuSans-114"/>
       <use x="266.40625" xlink:href="#DejaVuSans-32"/>
       <use x="298.193359" xlink:href="#DejaVuSans-102"/>
       <use x="333.398438" xlink:href="#DejaVuSans-97"/>
       <use x="394.677734" xlink:href="#DejaVuSans-99"/>
       <use x="449.658203" xlink:href="#DejaVuSans-116"/>
       <use x="488.867188" xlink:href="#DejaVuSans-111"/>
       <use x="550.048828" xlink:href="#DejaVuSans-114"/>
       <use x="591.162109" xlink:href="#DejaVuSans-115"/>
      </g>
     </g>
    </g>
    <g id="ytick_7">
     <g id="line2d_13">
      <g>
       <use style="stroke:#000000;stroke-width:0.8;" x="196.363438" xlink:href="#mefb58f1213" y="500.999312"/>
      </g>
     </g>
     <g id="text_14">
      <!-- any factor -->
      <g transform="translate(138.504063 504.798531)scale(0.1 -0.1)">
       <use xlink:href="#DejaVuSans-97"/>
       <use x="61.279297" xlink:href="#DejaVuSans-110"/>
       <use x="124.658203" xlink:href="#DejaVuSans-121"/>
       <use x="183.837891" xlink:href="#DejaVuSans-32"/>
       <use x="215.625" xlink:href="#DejaVuSans-102"/>
       <use x="250.830078" xlink:href="#DejaVuSans-97"/>
       <use x="312.109375" xlink:href="#DejaVuSans-99"/>
       <use x="367.089844" xlink:href="#DejaVuSans-116"/>
       <use x="406.298828" xlink:href="#DejaVuSans-111"/>
       <use x="467.480469" xlink:href="#DejaVuSans-114"/>
      </g>
     </g>
    </g>
    <g id="ytick_8">
     <g id="line2d_14">
      <g>
       <use style="stroke:#000000;stroke-width:0.8;" x="196.363438" xlink:href="#mefb58f1213" y="567.739312"/>
      </g>
     </g>
     <g id="text_15">
      <!-- do not know how to respond -->
      <g transform="translate(47.129063 571.538531)scale(0.1 -0.1)">
       <use xlink:href="#DejaVuSans-100"/>
       <use x="63.476562" xlink:href="#DejaVuSans-111"/>
       <use x="124.658203" xlink:href="#DejaVuSans-32"/>
       <use x="156.445312" xlink:href="#DejaVuSans-110"/>
       <use x="219.824219" xlink:href="#DejaVuSans-111"/>
       <use x="281.005859" xlink:href="#DejaVuSans-116"/>
       <use x="320.214844" xlink:href="#DejaVuSans-32"/>
       <use x="352.001953" xlink:href="#DejaVuSans-107"/>
       <use x="409.912109" xlink:href="#DejaVuSans-110"/>
       <use x="473.291016" xlink:href="#DejaVuSans-111"/>
       <use x="534.472656" xlink:href="#DejaVuSans-119"/>
       <use x="616.259766" xlink:href="#DejaVuSans-32"/>
       <use x="648.046875" xlink:href="#DejaVuSans-104"/>
       <use x="711.425781" xlink:href="#DejaVuSans-111"/>
       <use x="772.607422" xlink:href="#DejaVuSans-119"/>
       <use x="854.394531" xlink:href="#DejaVuSans-32"/>
       <use x="886.181641" xlink:href="#DejaVuSans-116"/>
       <use x="925.390625" xlink:href="#DejaVuSans-111"/>
       <use x="986.572266" xlink:href="#DejaVuSans-32"/>
       <use x="1018.359375" xlink:href="#DejaVuSans-114"/>
       <use x="1057.222656" xlink:href="#DejaVuSans-101"/>
       <use x="1118.746094" xlink:href="#DejaVuSans-115"/>
       <use x="1170.845703" xlink:href="#DejaVuSans-112"/>
       <use x="1234.322266" xlink:href="#DejaVuSans-111"/>
       <use x="1295.503906" xlink:href="#DejaVuSans-110"/>
       <use x="1358.882812" xlink:href="#DejaVuSans-100"/>
      </g>
     </g>
    </g>
    <g id="ytick_9">
     <g id="line2d_15">
      <g>
       <use style="stroke:#000000;stroke-width:0.8;" x="196.363438" xlink:href="#mefb58f1213" y="634.479312"/>
      </g>
     </g>
     <g id="text_16">
      <!-- recruitment of new digital skills -->
      <g transform="translate(31.88375 638.278531)scale(0.1 -0.1)">
       <use xlink:href="#DejaVuSans-114"/>
       <use x="38.863281" xlink:href="#DejaVuSans-101"/>
       <use x="100.386719" xlink:href="#DejaVuSans-99"/>
       <use x="155.367188" xlink:href="#DejaVuSans-114"/>
       <use x="196.480469" xlink:href="#DejaVuSans-117"/>
       <use x="259.859375" xlink:href="#DejaVuSans-105"/>
       <use x="287.642578" xlink:href="#DejaVuSans-116"/>
       <use x="326.851562" xlink:href="#DejaVuSans-109"/>
       <use x="424.263672" xlink:href="#DejaVuSans-101"/>
       <use x="485.787109" xlink:href="#DejaVuSans-110"/>
       <use x="549.166016" xlink:href="#DejaVuSans-116"/>
       <use x="588.375" xlink:href="#DejaVuSans-32"/>
       <use x="620.162109" xlink:href="#DejaVuSans-111"/>
       <use x="681.34375" xlink:href="#DejaVuSans-102"/>
       <use x="716.548828" xlink:href="#DejaVuSans-32"/>
       <use x="748.335938" xlink:href="#DejaVuSans-110"/>
       <use x="811.714844" xlink:href="#DejaVuSans-101"/>
       <use x="873.238281" xlink:href="#DejaVuSans-119"/>
       <use x="955.025391" xlink:href="#DejaVuSans-32"/>
       <use x="986.8125" xlink:href="#DejaVuSans-100"/>
       <use x="1050.289062" xlink:href="#DejaVuSans-105"/>
       <use x="1078.072266" xlink:href="#DejaVuSans-103"/>
       <use x="1141.548828" xlink:href="#DejaVuSans-105"/>
       <use x="1169.332031" xlink:href="#DejaVuSans-116"/>
       <use x="1208.541016" xlink:href="#DejaVuSans-97"/>
       <use x="1269.820312" xlink:href="#DejaVuSans-108"/>
       <use x="1297.603516" xlink:href="#DejaVuSans-32"/>
       <use x="1329.390625" xlink:href="#DejaVuSans-115"/>
       <use x="1381.490234" xlink:href="#DejaVuSans-107"/>
       <use x="1439.400391" xlink:href="#DejaVuSans-105"/>
       <use x="1467.183594" xlink:href="#DejaVuSans-108"/>
       <use x="1494.966797" xlink:href="#DejaVuSans-108"/>
       <use x="1522.75" xlink:href="#DejaVuSans-115"/>
      </g>
     </g>
    </g>
    <g id="ytick_10">
     <g id="line2d_16">
      <g>
       <use style="stroke:#000000;stroke-width:0.8;" x="196.363438" xlink:href="#mefb58f1213" y="701.219313"/>
      </g>
     </g>
     <g id="text_17">
      <!-- development of new digital skills -->
      <g transform="translate(24.749375 700.179469)scale(0.1 -0.1)">
       <use xlink:href="#DejaVuSans-100"/>
       <use x="63.476562" xlink:href="#DejaVuSans-101"/>
       <use x="125" xlink:href="#DejaVuSans-118"/>
       <use x="184.179688" xlink:href="#DejaVuSans-101"/>
       <use x="245.703125" xlink:href="#DejaVuSans-108"/>
       <use x="273.486328" xlink:href="#DejaVuSans-111"/>
       <use x="334.667969" xlink:href="#DejaVuSans-112"/>
       <use x="398.144531" xlink:href="#DejaVuSans-109"/>
       <use x="495.556641" xlink:href="#DejaVuSans-101"/>
       <use x="557.080078" xlink:href="#DejaVuSans-110"/>
       <use x="620.458984" xlink:href="#DejaVuSans-116"/>
       <use x="659.667969" xlink:href="#DejaVuSans-32"/>
       <use x="691.455078" xlink:href="#DejaVuSans-111"/>
       <use x="752.636719" xlink:href="#DejaVuSans-102"/>
       <use x="787.841797" xlink:href="#DejaVuSans-32"/>
       <use x="819.628906" xlink:href="#DejaVuSans-110"/>
       <use x="883.007812" xlink:href="#DejaVuSans-101"/>
       <use x="944.53125" xlink:href="#DejaVuSans-119"/>
       <use x="1026.318359" xlink:href="#DejaVuSans-32"/>
       <use x="1058.105469" xlink:href="#DejaVuSans-100"/>
       <use x="1121.582031" xlink:href="#DejaVuSans-105"/>
       <use x="1149.365234" xlink:href="#DejaVuSans-103"/>
       <use x="1212.841797" xlink:href="#DejaVuSans-105"/>
       <use x="1240.625" xlink:href="#DejaVuSans-116"/>
       <use x="1279.833984" xlink:href="#DejaVuSans-97"/>
       <use x="1341.113281" xlink:href="#DejaVuSans-108"/>
       <use x="1368.896484" xlink:href="#DejaVuSans-32"/>
       <use x="1400.683594" xlink:href="#DejaVuSans-115"/>
       <use x="1452.783203" xlink:href="#DejaVuSans-107"/>
       <use x="1510.693359" xlink:href="#DejaVuSans-105"/>
       <use x="1538.476562" xlink:href="#DejaVuSans-108"/>
       <use x="1566.259766" xlink:href="#DejaVuSans-108"/>
       <use x="1594.042969" xlink:href="#DejaVuSans-115"/>
      </g>
      <!--  of employees -->
      <g transform="translate(118.794688 711.377281)scale(0.1 -0.1)">
       <use xlink:href="#DejaVuSans-32"/>
       <use x="31.787109" xlink:href="#DejaVuSans-111"/>
       <use x="92.96875" xlink:href="#DejaVuSans-102"/>
       <use x="128.173828" xlink:href="#DejaVuSans-32"/>
       <use x="159.960938" xlink:href="#DejaVuSans-101"/>
       <use x="221.484375" xlink:href="#DejaVuSans-109"/>
       <use x="318.896484" xlink:href="#DejaVuSans-112"/>
       <use x="382.373047" xlink:href="#DejaVuSans-108"/>
       <use x="410.15625" xlink:href="#DejaVuSans-111"/>
       <use x="471.337891" xlink:href="#DejaVuSans-121"/>
       <use x="530.517578" xlink:href="#DejaVuSans-101"/>
       <use x="592.041016" xlink:href="#DejaVuSans-101"/>
       <use x="653.564453" xlink:href="#DejaVuSans-115"/>
      </g>
     </g>
    </g>
    <g id="text_18">
     <!-- Digitization factors -->
     <defs>
      <path d="M 19.671875 64.796875 
L 19.671875 8.109375 
L 31.59375 8.109375 
Q 46.6875 8.109375 53.6875 14.9375 
Q 60.6875 21.78125 60.6875 36.53125 
Q 60.6875 51.171875 53.6875 57.984375 
Q 46.6875 64.796875 31.59375 64.796875 
z
M 9.8125 72.90625 
L 30.078125 72.90625 
Q 51.265625 72.90625 61.171875 64.09375 
Q 71.09375 55.28125 71.09375 36.53125 
Q 71.09375 17.671875 61.125 8.828125 
Q 51.171875 0 30.078125 0 
L 9.8125 0 
z
" id="DejaVuSans-68"/>
     </defs>
     <g transform="translate(17.837813 467.052437)rotate(-90)scale(0.14 -0.14)">
      <use xlink:href="#DejaVuSans-68"/>
      <use x="77.001953" xlink:href="#DejaVuSans-105"/>
      <use x="104.785156" xlink:href="#DejaVuSans-103"/>
      <use x="168.261719" xlink:href="#DejaVuSans-105"/>
      <use x="196.044922" xlink:href="#DejaVuSans-116"/>
      <use x="235.253906" xlink:href="#DejaVuSans-105"/>
      <use x="263.037109" xlink:href="#DejaVuSans-122"/>
      <use x="315.527344" xlink:href="#DejaVuSans-97"/>
      <use x="376.806641" xlink:href="#DejaVuSans-116"/>
      <use x="416.015625" xlink:href="#DejaVuSans-105"/>
      <use x="443.798828" xlink:href="#DejaVuSans-111"/>
      <use x="504.980469" xlink:href="#DejaVuSans-110"/>
      <use x="568.359375" xlink:href="#DejaVuSans-32"/>
      <use x="600.146484" xlink:href="#DejaVuSans-102"/>
      <use x="635.351562" xlink:href="#DejaVuSans-97"/>
      <use x="696.630859" xlink:href="#DejaVuSans-99"/>
      <use x="751.611328" xlink:href="#DejaVuSans-116"/>
      <use x="790.820312" xlink:href="#DejaVuSans-111"/>
      <use x="852.001953" xlink:href="#DejaVuSans-114"/>
      <use x="893.115234" xlink:href="#DejaVuSans-115"/>
     </g>
    </g>
   </g>
   <g id="line2d_17">
    <path clip-path="url(#p58bc30bee9)" d="M 0 0 
" style="fill:none;stroke:#424242;stroke-linecap:square;stroke-width:2.7;"/>
   </g>
   <g id="line2d_18">
    <path clip-path="url(#p58bc30bee9)" d="M 0 0 
" style="fill:none;stroke:#424242;stroke-linecap:square;stroke-width:2.7;"/>
   </g>
   <g id="line2d_19">
    <path clip-path="url(#p58bc30bee9)" d="M 0 0 
" style="fill:none;stroke:#424242;stroke-linecap:square;stroke-width:2.7;"/>
   </g>
   <g id="line2d_20">
    <path clip-path="url(#p58bc30bee9)" d="M 0 0 
" style="fill:none;stroke:#424242;stroke-linecap:square;stroke-width:2.7;"/>
   </g>
   <g id="line2d_21">
    <path clip-path="url(#p58bc30bee9)" d="M 0 0 
" style="fill:none;stroke:#424242;stroke-linecap:square;stroke-width:2.7;"/>
   </g>
   <g id="line2d_22">
    <path clip-path="url(#p58bc30bee9)" d="M 0 0 
" style="fill:none;stroke:#424242;stroke-linecap:square;stroke-width:2.7;"/>
   </g>
   <g id="line2d_23">
    <path clip-path="url(#p58bc30bee9)" d="M 0 0 
" style="fill:none;stroke:#424242;stroke-linecap:square;stroke-width:2.7;"/>
   </g>
   <g id="line2d_24">
    <path clip-path="url(#p58bc30bee9)" d="M 0 0 
" style="fill:none;stroke:#424242;stroke-linecap:square;stroke-width:2.7;"/>
   </g>
   <g id="line2d_25">
    <path clip-path="url(#p58bc30bee9)" d="M 0 0 
" style="fill:none;stroke:#424242;stroke-linecap:square;stroke-width:2.7;"/>
   </g>
   <g id="line2d_26">
    <path clip-path="url(#p58bc30bee9)" d="M 0 0 
" style="fill:none;stroke:#424242;stroke-linecap:square;stroke-width:2.7;"/>
   </g>
   <g id="line2d_27">
    <path clip-path="url(#p58bc30bee9)" d="M 0 0 
" style="fill:none;stroke:#424242;stroke-linecap:square;stroke-width:2.7;"/>
   </g>
   <g id="line2d_28">
    <path clip-path="url(#p58bc30bee9)" d="M 0 0 
" style="fill:none;stroke:#424242;stroke-linecap:square;stroke-width:2.7;"/>
   </g>
   <g id="line2d_29">
    <path clip-path="url(#p58bc30bee9)" d="M 0 0 
" style="fill:none;stroke:#424242;stroke-linecap:square;stroke-width:2.7;"/>
   </g>
   <g id="line2d_30">
    <path clip-path="url(#p58bc30bee9)" d="M 0 0 
" style="fill:none;stroke:#424242;stroke-linecap:square;stroke-width:2.7;"/>
   </g>
   <g id="line2d_31">
    <path clip-path="url(#p58bc30bee9)" d="M 0 0 
" style="fill:none;stroke:#424242;stroke-linecap:square;stroke-width:2.7;"/>
   </g>
   <g id="line2d_32">
    <path clip-path="url(#p58bc30bee9)" d="M 0 0 
" style="fill:none;stroke:#424242;stroke-linecap:square;stroke-width:2.7;"/>
   </g>
   <g id="line2d_33">
    <path clip-path="url(#p58bc30bee9)" d="M 0 0 
" style="fill:none;stroke:#424242;stroke-linecap:square;stroke-width:2.7;"/>
   </g>
   <g id="line2d_34">
    <path clip-path="url(#p58bc30bee9)" d="M 0 0 
" style="fill:none;stroke:#424242;stroke-linecap:square;stroke-width:2.7;"/>
   </g>
   <g id="line2d_35">
    <path clip-path="url(#p58bc30bee9)" d="M 0 0 
" style="fill:none;stroke:#424242;stroke-linecap:square;stroke-width:2.7;"/>
   </g>
   <g id="line2d_36">
    <path clip-path="url(#p58bc30bee9)" d="M 0 0 
" style="fill:none;stroke:#424242;stroke-linecap:square;stroke-width:2.7;"/>
   </g>
   <g id="line2d_37">
    <path clip-path="url(#p58bc30bee9)" d="M 0 0 
" style="fill:none;stroke:#424242;stroke-linecap:square;stroke-width:2.7;"/>
   </g>
   <g id="line2d_38">
    <path clip-path="url(#p58bc30bee9)" d="M 0 0 
" style="fill:none;stroke:#424242;stroke-linecap:square;stroke-width:2.7;"/>
   </g>
   <g id="line2d_39">
    <path clip-path="url(#p58bc30bee9)" d="M 0 0 
" style="fill:none;stroke:#424242;stroke-linecap:square;stroke-width:2.7;"/>
   </g>
   <g id="line2d_40">
    <path clip-path="url(#p58bc30bee9)" d="M 0 0 
" style="fill:none;stroke:#424242;stroke-linecap:square;stroke-width:2.7;"/>
   </g>
   <g id="line2d_41">
    <path clip-path="url(#p58bc30bee9)" d="M 0 0 
" style="fill:none;stroke:#424242;stroke-linecap:square;stroke-width:2.7;"/>
   </g>
   <g id="line2d_42">
    <path clip-path="url(#p58bc30bee9)" d="M 0 0 
" style="fill:none;stroke:#424242;stroke-linecap:square;stroke-width:2.7;"/>
   </g>
   <g id="line2d_43">
    <path clip-path="url(#p58bc30bee9)" d="M 0 0 
" style="fill:none;stroke:#424242;stroke-linecap:square;stroke-width:2.7;"/>
   </g>
   <g id="line2d_44">
    <path clip-path="url(#p58bc30bee9)" d="M 0 0 
" style="fill:none;stroke:#424242;stroke-linecap:square;stroke-width:2.7;"/>
   </g>
   <g id="line2d_45">
    <path clip-path="url(#p58bc30bee9)" d="M 0 0 
" style="fill:none;stroke:#424242;stroke-linecap:square;stroke-width:2.7;"/>
   </g>
   <g id="line2d_46">
    <path clip-path="url(#p58bc30bee9)" d="M 0 0 
" style="fill:none;stroke:#424242;stroke-linecap:square;stroke-width:2.7;"/>
   </g>
   <g id="line2d_47">
    <path clip-path="url(#p58bc30bee9)" d="M 0 0 
" style="fill:none;stroke:#424242;stroke-linecap:square;stroke-width:2.7;"/>
   </g>
   <g id="line2d_48">
    <path clip-path="url(#p58bc30bee9)" d="M 0 0 
" style="fill:none;stroke:#424242;stroke-linecap:square;stroke-width:2.7;"/>
   </g>
   <g id="line2d_49">
    <path clip-path="url(#p58bc30bee9)" d="M 0 0 
" style="fill:none;stroke:#424242;stroke-linecap:square;stroke-width:2.7;"/>
   </g>
   <g id="line2d_50">
    <path clip-path="url(#p58bc30bee9)" d="M 0 0 
" style="fill:none;stroke:#424242;stroke-linecap:square;stroke-width:2.7;"/>
   </g>
   <g id="line2d_51">
    <path clip-path="url(#p58bc30bee9)" d="M 0 0 
" style="fill:none;stroke:#424242;stroke-linecap:square;stroke-width:2.7;"/>
   </g>
   <g id="line2d_52">
    <path clip-path="url(#p58bc30bee9)" d="M 0 0 
" style="fill:none;stroke:#424242;stroke-linecap:square;stroke-width:2.7;"/>
   </g>
   <g id="line2d_53">
    <path clip-path="url(#p58bc30bee9)" d="M 0 0 
" style="fill:none;stroke:#424242;stroke-linecap:square;stroke-width:2.7;"/>
   </g>
   <g id="line2d_54">
    <path clip-path="url(#p58bc30bee9)" d="M 0 0 
" style="fill:none;stroke:#424242;stroke-linecap:square;stroke-width:2.7;"/>
   </g>
   <g id="line2d_55">
    <path clip-path="url(#p58bc30bee9)" d="M 0 0 
" style="fill:none;stroke:#424242;stroke-linecap:square;stroke-width:2.7;"/>
   </g>
   <g id="line2d_56">
    <path clip-path="url(#p58bc30bee9)" d="M 0 0 
" style="fill:none;stroke:#424242;stroke-linecap:square;stroke-width:2.7;"/>
   </g>
   <g id="patch_43">
    <path d="M 196.363438 734.589313 
L 196.363438 67.189312 
" style="fill:none;stroke:#000000;stroke-linecap:square;stroke-linejoin:miter;stroke-width:0.8;"/>
   </g>
   <g id="patch_44">
    <path d="M 196.363438 734.589313 
L 979.241233 734.589313 
" style="fill:none;stroke:#000000;stroke-linecap:square;stroke-linejoin:miter;stroke-width:0.8;"/>
   </g>
   <g id="text_19">
    <!--  -->
    <g transform="translate(587.802335 20.877187)scale(0.18 -0.18)"/>
    <!-- The main digitization factors considered important by enterprises (2018) -->
    <defs>
     <path d="M -0.296875 72.90625 
L 61.375 72.90625 
L 61.375 64.59375 
L 35.5 64.59375 
L 35.5 0 
L 25.59375 0 
L 25.59375 64.59375 
L -0.296875 64.59375 
z
" id="DejaVuSans-84"/>
     <path d="M 31 75.875 
Q 24.46875 64.65625 21.28125 53.65625 
Q 18.109375 42.671875 18.109375 31.390625 
Q 18.109375 20.125 21.3125 9.0625 
Q 24.515625 -2 31 -13.1875 
L 23.1875 -13.1875 
Q 15.875 -1.703125 12.234375 9.375 
Q 8.59375 20.453125 8.59375 31.390625 
Q 8.59375 42.28125 12.203125 53.3125 
Q 15.828125 64.359375 23.1875 75.875 
z
" id="DejaVuSans-40"/>
     <path d="M 31.78125 34.625 
Q 24.75 34.625 20.71875 30.859375 
Q 16.703125 27.09375 16.703125 20.515625 
Q 16.703125 13.921875 20.71875 10.15625 
Q 24.75 6.390625 31.78125 6.390625 
Q 38.8125 6.390625 42.859375 10.171875 
Q 46.921875 13.96875 46.921875 20.515625 
Q 46.921875 27.09375 42.890625 30.859375 
Q 38.875 34.625 31.78125 34.625 
z
M 21.921875 38.8125 
Q 15.578125 40.375 12.03125 44.71875 
Q 8.5 49.078125 8.5 55.328125 
Q 8.5 64.0625 14.71875 69.140625 
Q 20.953125 74.21875 31.78125 74.21875 
Q 42.671875 74.21875 48.875 69.140625 
Q 55.078125 64.0625 55.078125 55.328125 
Q 55.078125 49.078125 51.53125 44.71875 
Q 48 40.375 41.703125 38.8125 
Q 48.828125 37.15625 52.796875 32.3125 
Q 56.78125 27.484375 56.78125 20.515625 
Q 56.78125 9.90625 50.3125 4.234375 
Q 43.84375 -1.421875 31.78125 -1.421875 
Q 19.734375 -1.421875 13.25 4.234375 
Q 6.78125 9.90625 6.78125 20.515625 
Q 6.78125 27.484375 10.78125 32.3125 
Q 14.796875 37.15625 21.921875 38.8125 
z
M 18.3125 54.390625 
Q 18.3125 48.734375 21.84375 45.5625 
Q 25.390625 42.390625 31.78125 42.390625 
Q 38.140625 42.390625 41.71875 45.5625 
Q 45.3125 48.734375 45.3125 54.390625 
Q 45.3125 60.0625 41.71875 63.234375 
Q 38.140625 66.40625 31.78125 66.40625 
Q 25.390625 66.40625 21.84375 63.234375 
Q 18.3125 60.0625 18.3125 54.390625 
z
" id="DejaVuSans-56"/>
     <path d="M 8.015625 75.875 
L 15.828125 75.875 
Q 23.140625 64.359375 26.78125 53.3125 
Q 30.421875 42.28125 30.421875 31.390625 
Q 30.421875 20.453125 26.78125 9.375 
Q 23.140625 -1.703125 15.828125 -13.1875 
L 8.015625 -13.1875 
Q 14.5 -2 17.703125 9.0625 
Q 20.90625 20.125 20.90625 31.390625 
Q 20.90625 42.671875 17.703125 53.65625 
Q 14.5 64.65625 8.015625 75.875 
z
" id="DejaVuSans-41"/>
    </defs>
    <g transform="translate(259.089992 41.03325)scale(0.18 -0.18)">
     <use xlink:href="#DejaVuSans-84"/>
     <use x="61.083984" xlink:href="#DejaVuSans-104"/>
     <use x="124.462891" xlink:href="#DejaVuSans-101"/>
     <use x="185.986328" xlink:href="#DejaVuSans-32"/>
     <use x="217.773438" xlink:href="#DejaVuSans-109"/>
     <use x="315.185547" xlink:href="#DejaVuSans-97"/>
     <use x="376.464844" xlink:href="#DejaVuSans-105"/>
     <use x="404.248047" xlink:href="#DejaVuSans-110"/>
     <use x="467.626953" xlink:href="#DejaVuSans-32"/>
     <use x="499.414062" xlink:href="#DejaVuSans-100"/>
     <use x="562.890625" xlink:href="#DejaVuSans-105"/>
     <use x="590.673828" xlink:href="#DejaVuSans-103"/>
     <use x="654.150391" xlink:href="#DejaVuSans-105"/>
     <use x="681.933594" xlink:href="#DejaVuSans-116"/>
     <use x="721.142578" xlink:href="#DejaVuSans-105"/>
     <use x="748.925781" xlink:href="#DejaVuSans-122"/>
     <use x="801.416016" xlink:href="#DejaVuSans-97"/>
     <use x="862.695312" xlink:href="#DejaVuSans-116"/>
     <use x="901.904297" xlink:href="#DejaVuSans-105"/>
     <use x="929.6875" xlink:href="#DejaVuSans-111"/>
     <use x="990.869141" xlink:href="#DejaVuSans-110"/>
     <use x="1054.248047" xlink:href="#DejaVuSans-32"/>
     <use x="1086.035156" xlink:href="#DejaVuSans-102"/>
     <use x="1121.240234" xlink:href="#DejaVuSans-97"/>
     <use x="1182.519531" xlink:href="#DejaVuSans-99"/>
     <use x="1237.5" xlink:href="#DejaVuSans-116"/>
     <use x="1276.708984" xlink:href="#DejaVuSans-111"/>
     <use x="1337.890625" xlink:href="#DejaVuSans-114"/>
     <use x="1379.003906" xlink:href="#DejaVuSans-115"/>
     <use x="1431.103516" xlink:href="#DejaVuSans-32"/>
     <use x="1462.890625" xlink:href="#DejaVuSans-99"/>
     <use x="1517.871094" xlink:href="#DejaVuSans-111"/>
     <use x="1579.052734" xlink:href="#DejaVuSans-110"/>
     <use x="1642.431641" xlink:href="#DejaVuSans-115"/>
     <use x="1694.53125" xlink:href="#DejaVuSans-105"/>
     <use x="1722.314453" xlink:href="#DejaVuSans-100"/>
     <use x="1785.791016" xlink:href="#DejaVuSans-101"/>
     <use x="1847.314453" xlink:href="#DejaVuSans-114"/>
     <use x="1886.177734" xlink:href="#DejaVuSans-101"/>
     <use x="1947.701172" xlink:href="#DejaVuSans-100"/>
     <use x="2011.177734" xlink:href="#DejaVuSans-32"/>
     <use x="2042.964844" xlink:href="#DejaVuSans-105"/>
     <use x="2070.748047" xlink:href="#DejaVuSans-109"/>
     <use x="2168.160156" xlink:href="#DejaVuSans-112"/>
     <use x="2231.636719" xlink:href="#DejaVuSans-111"/>
     <use x="2292.818359" xlink:href="#DejaVuSans-114"/>
     <use x="2333.931641" xlink:href="#DejaVuSans-116"/>
     <use x="2373.140625" xlink:href="#DejaVuSans-97"/>
     <use x="2434.419922" xlink:href="#DejaVuSans-110"/>
     <use x="2497.798828" xlink:href="#DejaVuSans-116"/>
     <use x="2537.007812" xlink:href="#DejaVuSans-32"/>
     <use x="2568.794922" xlink:href="#DejaVuSans-98"/>
     <use x="2632.271484" xlink:href="#DejaVuSans-121"/>
     <use x="2691.451172" xlink:href="#DejaVuSans-32"/>
     <use x="2723.238281" xlink:href="#DejaVuSans-101"/>
     <use x="2784.761719" xlink:href="#DejaVuSans-110"/>
     <use x="2848.140625" xlink:href="#DejaVuSans-116"/>
     <use x="2887.349609" xlink:href="#DejaVuSans-101"/>
     <use x="2948.873047" xlink:href="#DejaVuSans-114"/>
     <use x="2989.986328" xlink:href="#DejaVuSans-112"/>
     <use x="3053.462891" xlink:href="#DejaVuSans-114"/>
     <use x="3094.576172" xlink:href="#DejaVuSans-105"/>
     <use x="3122.359375" xlink:href="#DejaVuSans-115"/>
     <use x="3174.458984" xlink:href="#DejaVuSans-101"/>
     <use x="3235.982422" xlink:href="#DejaVuSans-115"/>
     <use x="3288.082031" xlink:href="#DejaVuSans-32"/>
     <use x="3319.869141" xlink:href="#DejaVuSans-40"/>
     <use x="3358.882812" xlink:href="#DejaVuSans-50"/>
     <use x="3422.505859" xlink:href="#DejaVuSans-48"/>
     <use x="3486.128906" xlink:href="#DejaVuSans-49"/>
     <use x="3549.751953" xlink:href="#DejaVuSans-56"/>
     <use x="3613.375" xlink:href="#DejaVuSans-41"/>
    </g>
    <!--  -->
    <g transform="translate(587.802335 61.189312)scale(0.18 -0.18)"/>
   </g>
   <g id="legend_1">
    <g id="patch_45">
     <path d="M 843.827233 727.389312 
L 969.161233 727.389312 
Q 972.041233 727.389312 972.041233 724.509312 
L 972.041233 641.403313 
Q 972.041233 638.523312 969.161233 638.523312 
L 843.827233 638.523312 
Q 840.947233 638.523312 840.947233 641.403313 
L 840.947233 724.509312 
Q 840.947233 727.389312 843.827233 727.389312 
z
" style="fill:#ffffff;opacity:0.8;stroke:#cccccc;stroke-linejoin:miter;"/>
    </g>
    <g id="patch_46">
     <path d="M 846.707233 655.225063 
L 875.507233 655.225063 
L 875.507233 645.145062 
L 846.707233 645.145062 
z
" style="fill:#3274a1;"/>
    </g>
    <g id="text_20">
     <!-- North-west -->
     <defs>
      <path d="M 9.8125 72.90625 
L 23.09375 72.90625 
L 55.421875 11.921875 
L 55.421875 72.90625 
L 64.984375 72.90625 
L 64.984375 0 
L 51.703125 0 
L 19.390625 60.984375 
L 19.390625 0 
L 9.8125 0 
z
" id="DejaVuSans-78"/>
     </defs>
     <g transform="translate(887.027233 655.225063)scale(0.144 -0.144)">
      <use xlink:href="#DejaVuSans-78"/>
      <use x="74.804688" xlink:href="#DejaVuSans-111"/>
      <use x="135.986328" xlink:href="#DejaVuSans-114"/>
      <use x="177.099609" xlink:href="#DejaVuSans-116"/>
      <use x="216.308594" xlink:href="#DejaVuSans-104"/>
      <use x="279.6875" xlink:href="#DejaVuSans-45"/>
      <use x="315.771484" xlink:href="#DejaVuSans-119"/>
      <use x="397.558594" xlink:href="#DejaVuSans-101"/>
      <use x="459.082031" xlink:href="#DejaVuSans-115"/>
      <use x="511.181641" xlink:href="#DejaVuSans-116"/>
     </g>
    </g>
    <g id="patch_47">
     <path d="M 846.707233 676.361562 
L 875.507233 676.361562 
L 875.507233 666.281562 
L 846.707233 666.281562 
z
" style="fill:#e1812c;"/>
    </g>
    <g id="text_21">
     <!-- North-east -->
     <g transform="translate(887.027233 676.361562)scale(0.144 -0.144)">
      <use xlink:href="#DejaVuSans-78"/>
      <use x="74.804688" xlink:href="#DejaVuSans-111"/>
      <use x="135.986328" xlink:href="#DejaVuSans-114"/>
      <use x="177.099609" xlink:href="#DejaVuSans-116"/>
      <use x="216.308594" xlink:href="#DejaVuSans-104"/>
      <use x="279.6875" xlink:href="#DejaVuSans-45"/>
      <use x="315.771484" xlink:href="#DejaVuSans-101"/>
      <use x="377.294922" xlink:href="#DejaVuSans-97"/>
      <use x="438.574219" xlink:href="#DejaVuSans-115"/>
      <use x="490.673828" xlink:href="#DejaVuSans-116"/>
     </g>
    </g>
    <g id="patch_48">
     <path d="M 846.707233 697.498063 
L 875.507233 697.498063 
L 875.507233 687.418063 
L 846.707233 687.418063 
z
" style="fill:#3a923a;"/>
    </g>
    <g id="text_22">
     <!-- Center -->
     <defs>
      <path d="M 64.40625 67.28125 
L 64.40625 56.890625 
Q 59.421875 61.53125 53.78125 63.8125 
Q 48.140625 66.109375 41.796875 66.109375 
Q 29.296875 66.109375 22.65625 58.46875 
Q 16.015625 50.828125 16.015625 36.375 
Q 16.015625 21.96875 22.65625 14.328125 
Q 29.296875 6.6875 41.796875 6.6875 
Q 48.140625 6.6875 53.78125 8.984375 
Q 59.421875 11.28125 64.40625 15.921875 
L 64.40625 5.609375 
Q 59.234375 2.09375 53.4375 0.328125 
Q 47.65625 -1.421875 41.21875 -1.421875 
Q 24.65625 -1.421875 15.125 8.703125 
Q 5.609375 18.84375 5.609375 36.375 
Q 5.609375 53.953125 15.125 64.078125 
Q 24.65625 74.21875 41.21875 74.21875 
Q 47.75 74.21875 53.53125 72.484375 
Q 59.328125 70.75 64.40625 67.28125 
z
" id="DejaVuSans-67"/>
     </defs>
     <g transform="translate(887.027233 697.498063)scale(0.144 -0.144)">
      <use xlink:href="#DejaVuSans-67"/>
      <use x="69.824219" xlink:href="#DejaVuSans-101"/>
      <use x="131.347656" xlink:href="#DejaVuSans-110"/>
      <use x="194.726562" xlink:href="#DejaVuSans-116"/>
      <use x="233.935547" xlink:href="#DejaVuSans-101"/>
      <use x="295.458984" xlink:href="#DejaVuSans-114"/>
     </g>
    </g>
    <g id="patch_49">
     <path d="M 846.707233 718.634563 
L 875.507233 718.634563 
L 875.507233 708.554562 
L 846.707233 708.554562 
z
" style="fill:#c03d3e;"/>
    </g>
    <g id="text_23">
     <!-- South -->
     <defs>
      <path d="M 53.515625 70.515625 
L 53.515625 60.890625 
Q 47.90625 63.578125 42.921875 64.890625 
Q 37.9375 66.21875 33.296875 66.21875 
Q 25.25 66.21875 20.875 63.09375 
Q 16.5 59.96875 16.5 54.203125 
Q 16.5 49.359375 19.40625 46.890625 
Q 22.3125 44.4375 30.421875 42.921875 
L 36.375 41.703125 
Q 47.40625 39.59375 52.65625 34.296875 
Q 57.90625 29 57.90625 20.125 
Q 57.90625 9.515625 50.796875 4.046875 
Q 43.703125 -1.421875 29.984375 -1.421875 
Q 24.8125 -1.421875 18.96875 -0.25 
Q 13.140625 0.921875 6.890625 3.21875 
L 6.890625 13.375 
Q 12.890625 10.015625 18.65625 8.296875 
Q 24.421875 6.59375 29.984375 6.59375 
Q 38.421875 6.59375 43.015625 9.90625 
Q 47.609375 13.234375 47.609375 19.390625 
Q 47.609375 24.75 44.3125 27.78125 
Q 41.015625 30.8125 33.5 32.328125 
L 27.484375 33.5 
Q 16.453125 35.6875 11.515625 40.375 
Q 6.59375 45.0625 6.59375 53.421875 
Q 6.59375 63.09375 13.40625 68.65625 
Q 20.21875 74.21875 32.171875 74.21875 
Q 37.3125 74.21875 42.625 73.28125 
Q 47.953125 72.359375 53.515625 70.515625 
z
" id="DejaVuSans-83"/>
     </defs>
     <g transform="translate(887.027233 718.634563)scale(0.144 -0.144)">
      <use xlink:href="#DejaVuSans-83"/>
      <use x="63.476562" xlink:href="#DejaVuSans-111"/>
      <use x="124.658203" xlink:href="#DejaVuSans-117"/>
      <use x="188.037109" xlink:href="#DejaVuSans-116"/>
      <use x="227.246094" xlink:href="#DejaVuSans-104"/>
     </g>
    </g>
   </g>
  </g>
 </g>
 <defs>
  <clipPath id="p58bc30bee9">
   <rect height="667.4" width="782.877796" x="196.363438" y="67.189312"/>
  </clipPath>
 </defs>
</svg>
