<?xml version="1.0" encoding="utf-8" standalone="no"?>
<!DOCTYPE svg PUBLIC "-//W3C//DTD SVG 1.1//EN"
  "http://www.w3.org/Graphics/SVG/1.1/DTD/svg11.dtd">
<!-- Created with matplotlib (https://matplotlib.org/) -->
<svg height="755.86075pt" version="1.1" viewBox="0 0 955.521562 755.86075" width="955.521562pt" xmlns="http://www.w3.org/2000/svg" xmlns:xlink="http://www.w3.org/1999/xlink">
 <defs>
  <style type="text/css">
*{stroke-linecap:butt;stroke-linejoin:round;}
  </style>
 </defs>
 <g id="figure_1">
  <g id="patch_1">
   <path d="M 0 755.86075 
L 955.521563 755.86075 
L 955.521563 0 
L 0 0 
z
" style="fill:none;"/>
  </g>
  <g id="axes_1">
   <g id="patch_2">
    <path d="M 223.836183 714.43325 
L 731.68538 714.43325 
L 731.68538 47.03325 
L 223.836183 47.03325 
z
" style="fill:#ffffff;"/>
   </g>
   <g id="patch_3">
    <path clip-path="url(#pd7704365e9)" d="M 223.836183 53.70725 
L 330.182957 53.70725 
L 330.182957 67.05525 
L 223.836183 67.05525 
z
" style="fill:#3274a1;"/>
   </g>
   <g id="patch_4">
    <path clip-path="url(#pd7704365e9)" d="M 223.836183 120.44725 
L 252.060463 120.44725 
L 252.060463 133.79525 
L 223.836183 133.79525 
z
" style="fill:#3274a1;"/>
   </g>
   <g id="patch_5">
    <path clip-path="url(#pd7704365e9)" d="M 223.836183 187.18725 
L 269.881254 187.18725 
L 269.881254 200.53525 
L 223.836183 200.53525 
z
" style="fill:#3274a1;"/>
   </g>
   <g id="patch_6">
    <path clip-path="url(#pd7704365e9)" d="M 223.836183 253.92725 
L 399.53955 253.92725 
L 399.53955 267.27525 
L 223.836183 267.27525 
z
" style="fill:#3274a1;"/>
   </g>
   <g id="patch_7">
    <path clip-path="url(#pd7704365e9)" d="M 223.836183 320.66725 
L 504.730381 320.66725 
L 504.730381 334.01525 
L 223.836183 334.01525 
z
" style="fill:#3274a1;"/>
   </g>
   <g id="patch_8">
    <path clip-path="url(#pd7704365e9)" d="M 223.836183 387.40725 
L 322.091355 387.40725 
L 322.091355 400.75525 
L 223.836183 400.75525 
z
" style="fill:#3274a1;"/>
   </g>
   <g id="patch_9">
    <path clip-path="url(#pd7704365e9)" d="M 223.836183 454.14725 
L 380.851801 454.14725 
L 380.851801 467.49525 
L 223.836183 467.49525 
z
" style="fill:#3274a1;"/>
   </g>
   <g id="patch_10">
    <path clip-path="url(#pd7704365e9)" d="M 223.836183 520.88725 
L 272.771112 520.88725 
L 272.771112 534.23525 
L 223.836183 534.23525 
z
" style="fill:#3274a1;"/>
   </g>
   <g id="patch_11">
    <path clip-path="url(#pd7704365e9)" d="M 223.836183 587.62725 
L 234.432329 587.62725 
L 234.432329 600.97525 
L 223.836183 600.97525 
z
" style="fill:#3274a1;"/>
   </g>
   <g id="patch_12">
    <path clip-path="url(#pd7704365e9)" d="M 223.836183 654.36725 
L 700.27744 654.36725 
L 700.27744 667.71525 
L 223.836183 667.71525 
z
" style="fill:#3274a1;"/>
   </g>
   <g id="patch_13">
    <path clip-path="url(#pd7704365e9)" d="M 223.836183 67.05525 
L 313.325452 67.05525 
L 313.325452 80.40325 
L 223.836183 80.40325 
z
" style="fill:#e1812c;"/>
   </g>
   <g id="patch_14">
    <path clip-path="url(#pd7704365e9)" d="M 223.836183 133.79525 
L 253.409063 133.79525 
L 253.409063 147.14325 
L 223.836183 147.14325 
z
" style="fill:#e1812c;"/>
   </g>
   <g id="patch_15">
    <path clip-path="url(#pd7704365e9)" d="M 223.836183 200.53525 
L 263.523566 200.53525 
L 263.523566 213.88325 
L 223.836183 213.88325 
z
" style="fill:#e1812c;"/>
   </g>
   <g id="patch_16">
    <path clip-path="url(#pd7704365e9)" d="M 223.836183 267.27525 
L 380.466487 267.27525 
L 380.466487 280.62325 
L 223.836183 280.62325 
z
" style="fill:#e1812c;"/>
   </g>
   <g id="patch_17">
    <path clip-path="url(#pd7704365e9)" d="M 223.836183 334.01525 
L 516.000827 334.01525 
L 516.000827 347.36325 
L 223.836183 347.36325 
z
" style="fill:#e1812c;"/>
   </g>
   <g id="patch_18">
    <path clip-path="url(#pd7704365e9)" d="M 223.836183 400.75525 
L 342.224032 400.75525 
L 342.224032 414.10325 
L 223.836183 414.10325 
z
" style="fill:#e1812c;"/>
   </g>
   <g id="patch_19">
    <path clip-path="url(#pd7704365e9)" d="M 223.836183 467.49525 
L 422.851071 467.49525 
L 422.851071 480.84325 
L 223.836183 480.84325 
z
" style="fill:#e1812c;"/>
   </g>
   <g id="patch_20">
    <path clip-path="url(#pd7704365e9)" d="M 223.836183 534.23525 
L 267.37671 534.23525 
L 267.37671 547.58325 
L 223.836183 547.58325 
z
" style="fill:#e1812c;"/>
   </g>
   <g id="patch_21">
    <path clip-path="url(#pd7704365e9)" d="M 223.836183 600.97525 
L 237.033201 600.97525 
L 237.033201 614.32325 
L 223.836183 614.32325 
z
" style="fill:#e1812c;"/>
   </g>
   <g id="patch_22">
    <path clip-path="url(#pd7704365e9)" d="M 223.836183 667.71525 
L 707.502085 667.71525 
L 707.502085 681.06325 
L 223.836183 681.06325 
z
" style="fill:#e1812c;"/>
   </g>
   <g id="patch_23">
    <path clip-path="url(#pd7704365e9)" d="M 223.836183 80.40325 
L 308.412694 80.40325 
L 308.412694 93.75125 
L 223.836183 93.75125 
z
" style="fill:#3a923a;"/>
   </g>
   <g id="patch_24">
    <path clip-path="url(#pd7704365e9)" d="M 223.836183 147.14325 
L 240.982674 147.14325 
L 240.982674 160.49125 
L 223.836183 160.49125 
z
" style="fill:#3a923a;"/>
   </g>
   <g id="patch_25">
    <path clip-path="url(#pd7704365e9)" d="M 223.836183 213.88325 
L 245.028475 213.88325 
L 245.028475 227.23125 
L 223.836183 227.23125 
z
" style="fill:#3a923a;"/>
   </g>
   <g id="patch_26">
    <path clip-path="url(#pd7704365e9)" d="M 223.836183 280.62325 
L 364.090625 280.62325 
L 364.090625 293.97125 
L 223.836183 293.97125 
z
" style="fill:#3a923a;"/>
   </g>
   <g id="patch_27">
    <path clip-path="url(#pd7704365e9)" d="M 223.836183 347.36325 
L 480.262917 347.36325 
L 480.262917 360.71125 
L 223.836183 360.71125 
z
" style="fill:#3a923a;"/>
   </g>
   <g id="patch_28">
    <path clip-path="url(#pd7704365e9)" d="M 223.836183 414.10325 
L 335.48103 414.10325 
L 335.48103 427.45125 
L 223.836183 427.45125 
z
" style="fill:#3a923a;"/>
   </g>
   <g id="patch_29">
    <path clip-path="url(#pd7704365e9)" d="M 223.836183 480.84325 
L 415.048454 480.84325 
L 415.048454 494.19125 
L 223.836183 494.19125 
z
" style="fill:#3a923a;"/>
   </g>
   <g id="patch_30">
    <path clip-path="url(#pd7704365e9)" d="M 223.836183 547.58325 
L 262.367623 547.58325 
L 262.367623 560.93125 
L 223.836183 560.93125 
z
" style="fill:#3a923a;"/>
   </g>
   <g id="patch_31">
    <path clip-path="url(#pd7704365e9)" d="M 223.836183 614.32325 
L 239.441416 614.32325 
L 239.441416 627.67125 
L 223.836183 627.67125 
z
" style="fill:#3a923a;"/>
   </g>
   <g id="patch_32">
    <path clip-path="url(#pd7704365e9)" d="M 223.836183 681.06325 
L 609.632227 681.06325 
L 609.632227 694.41125 
L 223.836183 694.41125 
z
" style="fill:#3a923a;"/>
   </g>
   <g id="patch_33">
    <path clip-path="url(#pd7704365e9)" d="M 223.836183 93.75125 
L 321.706041 93.75125 
L 321.706041 107.09925 
L 223.836183 107.09925 
z
" style="fill:#c03d3e;"/>
   </g>
   <g id="patch_34">
    <path clip-path="url(#pd7704365e9)" d="M 223.836183 160.49125 
L 249.844905 160.49125 
L 249.844905 173.83925 
L 223.836183 173.83925 
z
" style="fill:#c03d3e;"/>
   </g>
   <g id="patch_35">
    <path clip-path="url(#pd7704365e9)" d="M 223.836183 227.23125 
L 239.730402 227.23125 
L 239.730402 240.57925 
L 223.836183 240.57925 
z
" style="fill:#c03d3e;"/>
   </g>
   <g id="patch_36">
    <path clip-path="url(#pd7704365e9)" d="M 223.836183 293.97125 
L 355.902694 293.97125 
L 355.902694 307.31925 
L 223.836183 307.31925 
z
" style="fill:#c03d3e;"/>
   </g>
   <g id="patch_37">
    <path clip-path="url(#pd7704365e9)" d="M 223.836183 360.71125 
L 450.882694 360.71125 
L 450.882694 374.05925 
L 223.836183 374.05925 
z
" style="fill:#c03d3e;"/>
   </g>
   <g id="patch_38">
    <path clip-path="url(#pd7704365e9)" d="M 223.836183 427.45125 
L 338.659874 427.45125 
L 338.659874 440.79925 
L 223.836183 440.79925 
z
" style="fill:#c03d3e;"/>
   </g>
   <g id="patch_39">
    <path clip-path="url(#pd7704365e9)" d="M 223.836183 494.19125 
L 389.521375 494.19125 
L 389.521375 507.53925 
L 223.836183 507.53925 
z
" style="fill:#c03d3e;"/>
   </g>
   <g id="patch_40">
    <path clip-path="url(#pd7704365e9)" d="M 223.836183 560.93125 
L 281.248028 560.93125 
L 281.248028 574.27925 
L 223.836183 574.27925 
z
" style="fill:#c03d3e;"/>
   </g>
   <g id="patch_41">
    <path clip-path="url(#pd7704365e9)" d="M 223.836183 627.67125 
L 235.780929 627.67125 
L 235.780929 641.01925 
L 223.836183 641.01925 
z
" style="fill:#c03d3e;"/>
   </g>
   <g id="patch_42">
    <path clip-path="url(#pd7704365e9)" d="M 223.836183 694.41125 
L 562.045898 694.41125 
L 562.045898 707.75925 
L 223.836183 707.75925 
z
" style="fill:#c03d3e;"/>
   </g>
   <g id="matplotlib.axis_1">
    <g id="xtick_1">
     <g id="line2d_1">
      <defs>
       <path d="M 0 0 
L 0 3.5 
" id="mc1e10d8711" style="stroke:#000000;stroke-width:0.8;"/>
      </defs>
      <g>
       <use style="stroke:#000000;stroke-width:0.8;" x="223.836183" xlink:href="#mc1e10d8711" y="714.43325"/>
      </g>
     </g>
     <g id="text_1">
      <!-- 0 -->
      <defs>
       <path d="M 31.78125 66.40625 
Q 24.171875 66.40625 20.328125 58.90625 
Q 16.5 51.421875 16.5 36.375 
Q 16.5 21.390625 20.328125 13.890625 
Q 24.171875 6.390625 31.78125 6.390625 
Q 39.453125 6.390625 43.28125 13.890625 
Q 47.125 21.390625 47.125 36.375 
Q 47.125 51.421875 43.28125 58.90625 
Q 39.453125 66.40625 31.78125 66.40625 
z
M 31.78125 74.21875 
Q 44.046875 74.21875 50.515625 64.515625 
Q 56.984375 54.828125 56.984375 36.375 
Q 56.984375 17.96875 50.515625 8.265625 
Q 44.046875 -1.421875 31.78125 -1.421875 
Q 19.53125 -1.421875 13.0625 8.265625 
Q 6.59375 17.96875 6.59375 36.375 
Q 6.59375 54.828125 13.0625 64.515625 
Q 19.53125 74.21875 31.78125 74.21875 
z
" id="DejaVuSans-48"/>
      </defs>
      <g transform="translate(220.654933 729.031687)scale(0.1 -0.1)">
       <use xlink:href="#DejaVuSans-48"/>
      </g>
     </g>
    </g>
    <g id="xtick_2">
     <g id="line2d_2">
      <g>
       <use style="stroke:#000000;stroke-width:0.8;" x="320.164783" xlink:href="#mc1e10d8711" y="714.43325"/>
      </g>
     </g>
     <g id="text_2">
      <!-- 10 -->
      <defs>
       <path d="M 12.40625 8.296875 
L 28.515625 8.296875 
L 28.515625 63.921875 
L 10.984375 60.40625 
L 10.984375 69.390625 
L 28.421875 72.90625 
L 38.28125 72.90625 
L 38.28125 8.296875 
L 54.390625 8.296875 
L 54.390625 0 
L 12.40625 0 
z
" id="DejaVuSans-49"/>
      </defs>
      <g transform="translate(313.802283 729.031687)scale(0.1 -0.1)">
       <use xlink:href="#DejaVuSans-49"/>
       <use x="63.623047" xlink:href="#DejaVuSans-48"/>
      </g>
     </g>
    </g>
    <g id="xtick_3">
     <g id="line2d_3">
      <g>
       <use style="stroke:#000000;stroke-width:0.8;" x="416.493383" xlink:href="#mc1e10d8711" y="714.43325"/>
      </g>
     </g>
     <g id="text_3">
      <!-- 20 -->
      <defs>
       <path d="M 19.1875 8.296875 
L 53.609375 8.296875 
L 53.609375 0 
L 7.328125 0 
L 7.328125 8.296875 
Q 12.9375 14.109375 22.625 23.890625 
Q 32.328125 33.6875 34.8125 36.53125 
Q 39.546875 41.84375 41.421875 45.53125 
Q 43.3125 49.21875 43.3125 52.78125 
Q 43.3125 58.59375 39.234375 62.25 
Q 35.15625 65.921875 28.609375 65.921875 
Q 23.96875 65.921875 18.8125 64.3125 
Q 13.671875 62.703125 7.8125 59.421875 
L 7.8125 69.390625 
Q 13.765625 71.78125 18.9375 73 
Q 24.125 74.21875 28.421875 74.21875 
Q 39.75 74.21875 46.484375 68.546875 
Q 53.21875 62.890625 53.21875 53.421875 
Q 53.21875 48.921875 51.53125 44.890625 
Q 49.859375 40.875 45.40625 35.40625 
Q 44.1875 33.984375 37.640625 27.21875 
Q 31.109375 20.453125 19.1875 8.296875 
z
" id="DejaVuSans-50"/>
      </defs>
      <g transform="translate(410.130883 729.031687)scale(0.1 -0.1)">
       <use xlink:href="#DejaVuSans-50"/>
       <use x="63.623047" xlink:href="#DejaVuSans-48"/>
      </g>
     </g>
    </g>
    <g id="xtick_4">
     <g id="line2d_4">
      <g>
       <use style="stroke:#000000;stroke-width:0.8;" x="512.821984" xlink:href="#mc1e10d8711" y="714.43325"/>
      </g>
     </g>
     <g id="text_4">
      <!-- 30 -->
      <defs>
       <path d="M 40.578125 39.3125 
Q 47.65625 37.796875 51.625 33 
Q 55.609375 28.21875 55.609375 21.1875 
Q 55.609375 10.40625 48.1875 4.484375 
Q 40.765625 -1.421875 27.09375 -1.421875 
Q 22.515625 -1.421875 17.65625 -0.515625 
Q 12.796875 0.390625 7.625 2.203125 
L 7.625 11.71875 
Q 11.71875 9.328125 16.59375 8.109375 
Q 21.484375 6.890625 26.8125 6.890625 
Q 36.078125 6.890625 40.9375 10.546875 
Q 45.796875 14.203125 45.796875 21.1875 
Q 45.796875 27.640625 41.28125 31.265625 
Q 36.765625 34.90625 28.71875 34.90625 
L 20.21875 34.90625 
L 20.21875 43.015625 
L 29.109375 43.015625 
Q 36.375 43.015625 40.234375 45.921875 
Q 44.09375 48.828125 44.09375 54.296875 
Q 44.09375 59.90625 40.109375 62.90625 
Q 36.140625 65.921875 28.71875 65.921875 
Q 24.65625 65.921875 20.015625 65.03125 
Q 15.375 64.15625 9.8125 62.3125 
L 9.8125 71.09375 
Q 15.4375 72.65625 20.34375 73.4375 
Q 25.25 74.21875 29.59375 74.21875 
Q 40.828125 74.21875 47.359375 69.109375 
Q 53.90625 64.015625 53.90625 55.328125 
Q 53.90625 49.265625 50.4375 45.09375 
Q 46.96875 40.921875 40.578125 39.3125 
z
" id="DejaVuSans-51"/>
      </defs>
      <g transform="translate(506.459484 729.031687)scale(0.1 -0.1)">
       <use xlink:href="#DejaVuSans-51"/>
       <use x="63.623047" xlink:href="#DejaVuSans-48"/>
      </g>
     </g>
    </g>
    <g id="xtick_5">
     <g id="line2d_5">
      <g>
       <use style="stroke:#000000;stroke-width:0.8;" x="609.150584" xlink:href="#mc1e10d8711" y="714.43325"/>
      </g>
     </g>
     <g id="text_5">
      <!-- 40 -->
      <defs>
       <path d="M 37.796875 64.3125 
L 12.890625 25.390625 
L 37.796875 25.390625 
z
M 35.203125 72.90625 
L 47.609375 72.90625 
L 47.609375 25.390625 
L 58.015625 25.390625 
L 58.015625 17.1875 
L 47.609375 17.1875 
L 47.609375 0 
L 37.796875 0 
L 37.796875 17.1875 
L 4.890625 17.1875 
L 4.890625 26.703125 
z
" id="DejaVuSans-52"/>
      </defs>
      <g transform="translate(602.788084 729.031687)scale(0.1 -0.1)">
       <use xlink:href="#DejaVuSans-52"/>
       <use x="63.623047" xlink:href="#DejaVuSans-48"/>
      </g>
     </g>
    </g>
    <g id="xtick_6">
     <g id="line2d_6">
      <g>
       <use style="stroke:#000000;stroke-width:0.8;" x="705.479184" xlink:href="#mc1e10d8711" y="714.43325"/>
      </g>
     </g>
     <g id="text_6">
      <!-- 50 -->
      <defs>
       <path d="M 10.796875 72.90625 
L 49.515625 72.90625 
L 49.515625 64.59375 
L 19.828125 64.59375 
L 19.828125 46.734375 
Q 21.96875 47.46875 24.109375 47.828125 
Q 26.265625 48.1875 28.421875 48.1875 
Q 40.625 48.1875 47.75 41.5 
Q 54.890625 34.8125 54.890625 23.390625 
Q 54.890625 11.625 47.5625 5.09375 
Q 40.234375 -1.421875 26.90625 -1.421875 
Q 22.3125 -1.421875 17.546875 -0.640625 
Q 12.796875 0.140625 7.71875 1.703125 
L 7.71875 11.625 
Q 12.109375 9.234375 16.796875 8.0625 
Q 21.484375 6.890625 26.703125 6.890625 
Q 35.15625 6.890625 40.078125 11.328125 
Q 45.015625 15.765625 45.015625 23.390625 
Q 45.015625 31 40.078125 35.4375 
Q 35.15625 39.890625 26.703125 39.890625 
Q 22.75 39.890625 18.8125 39.015625 
Q 14.890625 38.140625 10.796875 36.28125 
z
" id="DejaVuSans-53"/>
      </defs>
      <g transform="translate(699.116684 729.031687)scale(0.1 -0.1)">
       <use xlink:href="#DejaVuSans-53"/>
       <use x="63.623047" xlink:href="#DejaVuSans-48"/>
      </g>
     </g>
    </g>
    <g id="text_7">
     <!-- Percentages -->
     <defs>
      <path d="M 19.671875 64.796875 
L 19.671875 37.40625 
L 32.078125 37.40625 
Q 38.96875 37.40625 42.71875 40.96875 
Q 46.484375 44.53125 46.484375 51.125 
Q 46.484375 57.671875 42.71875 61.234375 
Q 38.96875 64.796875 32.078125 64.796875 
z
M 9.8125 72.90625 
L 32.078125 72.90625 
Q 44.34375 72.90625 50.609375 67.359375 
Q 56.890625 61.8125 56.890625 51.125 
Q 56.890625 40.328125 50.609375 34.8125 
Q 44.34375 29.296875 32.078125 29.296875 
L 19.671875 29.296875 
L 19.671875 0 
L 9.8125 0 
z
" id="DejaVuSans-80"/>
      <path d="M 56.203125 29.59375 
L 56.203125 25.203125 
L 14.890625 25.203125 
Q 15.484375 15.921875 20.484375 11.0625 
Q 25.484375 6.203125 34.421875 6.203125 
Q 39.59375 6.203125 44.453125 7.46875 
Q 49.3125 8.734375 54.109375 11.28125 
L 54.109375 2.78125 
Q 49.265625 0.734375 44.1875 -0.34375 
Q 39.109375 -1.421875 33.890625 -1.421875 
Q 20.796875 -1.421875 13.15625 6.1875 
Q 5.515625 13.8125 5.515625 26.8125 
Q 5.515625 40.234375 12.765625 48.109375 
Q 20.015625 56 32.328125 56 
Q 43.359375 56 49.78125 48.890625 
Q 56.203125 41.796875 56.203125 29.59375 
z
M 47.21875 32.234375 
Q 47.125 39.59375 43.09375 43.984375 
Q 39.0625 48.390625 32.421875 48.390625 
Q 24.90625 48.390625 20.390625 44.140625 
Q 15.875 39.890625 15.1875 32.171875 
z
" id="DejaVuSans-101"/>
      <path d="M 41.109375 46.296875 
Q 39.59375 47.171875 37.8125 47.578125 
Q 36.03125 48 33.890625 48 
Q 26.265625 48 22.1875 43.046875 
Q 18.109375 38.09375 18.109375 28.8125 
L 18.109375 0 
L 9.078125 0 
L 9.078125 54.6875 
L 18.109375 54.6875 
L 18.109375 46.1875 
Q 20.953125 51.171875 25.484375 53.578125 
Q 30.03125 56 36.53125 56 
Q 37.453125 56 38.578125 55.875 
Q 39.703125 55.765625 41.0625 55.515625 
z
" id="DejaVuSans-114"/>
      <path d="M 48.78125 52.59375 
L 48.78125 44.1875 
Q 44.96875 46.296875 41.140625 47.34375 
Q 37.3125 48.390625 33.40625 48.390625 
Q 24.65625 48.390625 19.8125 42.84375 
Q 14.984375 37.3125 14.984375 27.296875 
Q 14.984375 17.28125 19.8125 11.734375 
Q 24.65625 6.203125 33.40625 6.203125 
Q 37.3125 6.203125 41.140625 7.25 
Q 44.96875 8.296875 48.78125 10.40625 
L 48.78125 2.09375 
Q 45.015625 0.34375 40.984375 -0.53125 
Q 36.96875 -1.421875 32.421875 -1.421875 
Q 20.0625 -1.421875 12.78125 6.34375 
Q 5.515625 14.109375 5.515625 27.296875 
Q 5.515625 40.671875 12.859375 48.328125 
Q 20.21875 56 33.015625 56 
Q 37.15625 56 41.109375 55.140625 
Q 45.0625 54.296875 48.78125 52.59375 
z
" id="DejaVuSans-99"/>
      <path d="M 54.890625 33.015625 
L 54.890625 0 
L 45.90625 0 
L 45.90625 32.71875 
Q 45.90625 40.484375 42.875 44.328125 
Q 39.84375 48.1875 33.796875 48.1875 
Q 26.515625 48.1875 22.3125 43.546875 
Q 18.109375 38.921875 18.109375 30.90625 
L 18.109375 0 
L 9.078125 0 
L 9.078125 54.6875 
L 18.109375 54.6875 
L 18.109375 46.1875 
Q 21.34375 51.125 25.703125 53.5625 
Q 30.078125 56 35.796875 56 
Q 45.21875 56 50.046875 50.171875 
Q 54.890625 44.34375 54.890625 33.015625 
z
" id="DejaVuSans-110"/>
      <path d="M 18.3125 70.21875 
L 18.3125 54.6875 
L 36.8125 54.6875 
L 36.8125 47.703125 
L 18.3125 47.703125 
L 18.3125 18.015625 
Q 18.3125 11.328125 20.140625 9.421875 
Q 21.96875 7.515625 27.59375 7.515625 
L 36.8125 7.515625 
L 36.8125 0 
L 27.59375 0 
Q 17.1875 0 13.234375 3.875 
Q 9.28125 7.765625 9.28125 18.015625 
L 9.28125 47.703125 
L 2.6875 47.703125 
L 2.6875 54.6875 
L 9.28125 54.6875 
L 9.28125 70.21875 
z
" id="DejaVuSans-116"/>
      <path d="M 34.28125 27.484375 
Q 23.390625 27.484375 19.1875 25 
Q 14.984375 22.515625 14.984375 16.5 
Q 14.984375 11.71875 18.140625 8.90625 
Q 21.296875 6.109375 26.703125 6.109375 
Q 34.1875 6.109375 38.703125 11.40625 
Q 43.21875 16.703125 43.21875 25.484375 
L 43.21875 27.484375 
z
M 52.203125 31.203125 
L 52.203125 0 
L 43.21875 0 
L 43.21875 8.296875 
Q 40.140625 3.328125 35.546875 0.953125 
Q 30.953125 -1.421875 24.3125 -1.421875 
Q 15.921875 -1.421875 10.953125 3.296875 
Q 6 8.015625 6 15.921875 
Q 6 25.140625 12.171875 29.828125 
Q 18.359375 34.515625 30.609375 34.515625 
L 43.21875 34.515625 
L 43.21875 35.40625 
Q 43.21875 41.609375 39.140625 45 
Q 35.0625 48.390625 27.6875 48.390625 
Q 23 48.390625 18.546875 47.265625 
Q 14.109375 46.140625 10.015625 43.890625 
L 10.015625 52.203125 
Q 14.9375 54.109375 19.578125 55.046875 
Q 24.21875 56 28.609375 56 
Q 40.484375 56 46.34375 49.84375 
Q 52.203125 43.703125 52.203125 31.203125 
z
" id="DejaVuSans-97"/>
      <path d="M 45.40625 27.984375 
Q 45.40625 37.75 41.375 43.109375 
Q 37.359375 48.484375 30.078125 48.484375 
Q 22.859375 48.484375 18.828125 43.109375 
Q 14.796875 37.75 14.796875 27.984375 
Q 14.796875 18.265625 18.828125 12.890625 
Q 22.859375 7.515625 30.078125 7.515625 
Q 37.359375 7.515625 41.375 12.890625 
Q 45.40625 18.265625 45.40625 27.984375 
z
M 54.390625 6.78125 
Q 54.390625 -7.171875 48.1875 -13.984375 
Q 42 -20.796875 29.203125 -20.796875 
Q 24.46875 -20.796875 20.265625 -20.09375 
Q 16.0625 -19.390625 12.109375 -17.921875 
L 12.109375 -9.1875 
Q 16.0625 -11.328125 19.921875 -12.34375 
Q 23.78125 -13.375 27.78125 -13.375 
Q 36.625 -13.375 41.015625 -8.765625 
Q 45.40625 -4.15625 45.40625 5.171875 
L 45.40625 9.625 
Q 42.625 4.78125 38.28125 2.390625 
Q 33.9375 0 27.875 0 
Q 17.828125 0 11.671875 7.65625 
Q 5.515625 15.328125 5.515625 27.984375 
Q 5.515625 40.671875 11.671875 48.328125 
Q 17.828125 56 27.875 56 
Q 33.9375 56 38.28125 53.609375 
Q 42.625 51.21875 45.40625 46.390625 
L 45.40625 54.6875 
L 54.390625 54.6875 
z
" id="DejaVuSans-103"/>
      <path d="M 44.28125 53.078125 
L 44.28125 44.578125 
Q 40.484375 46.53125 36.375 47.5 
Q 32.28125 48.484375 27.875 48.484375 
Q 21.1875 48.484375 17.84375 46.4375 
Q 14.5 44.390625 14.5 40.28125 
Q 14.5 37.15625 16.890625 35.375 
Q 19.28125 33.59375 26.515625 31.984375 
L 29.59375 31.296875 
Q 39.15625 29.25 43.1875 25.515625 
Q 47.21875 21.78125 47.21875 15.09375 
Q 47.21875 7.46875 41.1875 3.015625 
Q 35.15625 -1.421875 24.609375 -1.421875 
Q 20.21875 -1.421875 15.453125 -0.5625 
Q 10.6875 0.296875 5.421875 2 
L 5.421875 11.28125 
Q 10.40625 8.6875 15.234375 7.390625 
Q 20.0625 6.109375 24.8125 6.109375 
Q 31.15625 6.109375 34.5625 8.28125 
Q 37.984375 10.453125 37.984375 14.40625 
Q 37.984375 18.0625 35.515625 20.015625 
Q 33.0625 21.96875 24.703125 23.78125 
L 21.578125 24.515625 
Q 13.234375 26.265625 9.515625 29.90625 
Q 5.8125 33.546875 5.8125 39.890625 
Q 5.8125 47.609375 11.28125 51.796875 
Q 16.75 56 26.8125 56 
Q 31.78125 56 36.171875 55.265625 
Q 40.578125 54.546875 44.28125 53.078125 
z
" id="DejaVuSans-115"/>
     </defs>
     <g transform="translate(434.7425 745.749187)scale(0.14 -0.14)">
      <use xlink:href="#DejaVuSans-80"/>
      <use x="56.677734" xlink:href="#DejaVuSans-101"/>
      <use x="118.201172" xlink:href="#DejaVuSans-114"/>
      <use x="157.064453" xlink:href="#DejaVuSans-99"/>
      <use x="212.044922" xlink:href="#DejaVuSans-101"/>
      <use x="273.568359" xlink:href="#DejaVuSans-110"/>
      <use x="336.947266" xlink:href="#DejaVuSans-116"/>
      <use x="376.15625" xlink:href="#DejaVuSans-97"/>
      <use x="437.435547" xlink:href="#DejaVuSans-103"/>
      <use x="500.912109" xlink:href="#DejaVuSans-101"/>
      <use x="562.435547" xlink:href="#DejaVuSans-115"/>
     </g>
    </g>
   </g>
   <g id="matplotlib.axis_2">
    <g id="ytick_1">
     <g id="line2d_7">
      <defs>
       <path d="M 0 0 
L -3.5 0 
" id="m2faabcd99a" style="stroke:#000000;stroke-width:0.8;"/>
      </defs>
      <g>
       <use style="stroke:#000000;stroke-width:0.8;" x="223.836183" xlink:href="#m2faabcd99a" y="80.40325"/>
      </g>
     </g>
     <g id="text_8">
      <!-- Internet of things area -->
      <defs>
       <path d="M 9.8125 72.90625 
L 19.671875 72.90625 
L 19.671875 0 
L 9.8125 0 
z
" id="DejaVuSans-73"/>
       <path id="DejaVuSans-32"/>
       <path d="M 30.609375 48.390625 
Q 23.390625 48.390625 19.1875 42.75 
Q 14.984375 37.109375 14.984375 27.296875 
Q 14.984375 17.484375 19.15625 11.84375 
Q 23.34375 6.203125 30.609375 6.203125 
Q 37.796875 6.203125 41.984375 11.859375 
Q 46.1875 17.53125 46.1875 27.296875 
Q 46.1875 37.015625 41.984375 42.703125 
Q 37.796875 48.390625 30.609375 48.390625 
z
M 30.609375 56 
Q 42.328125 56 49.015625 48.375 
Q 55.71875 40.765625 55.71875 27.296875 
Q 55.71875 13.875 49.015625 6.21875 
Q 42.328125 -1.421875 30.609375 -1.421875 
Q 18.84375 -1.421875 12.171875 6.21875 
Q 5.515625 13.875 5.515625 27.296875 
Q 5.515625 40.765625 12.171875 48.375 
Q 18.84375 56 30.609375 56 
z
" id="DejaVuSans-111"/>
       <path d="M 37.109375 75.984375 
L 37.109375 68.5 
L 28.515625 68.5 
Q 23.6875 68.5 21.796875 66.546875 
Q 19.921875 64.59375 19.921875 59.515625 
L 19.921875 54.6875 
L 34.71875 54.6875 
L 34.71875 47.703125 
L 19.921875 47.703125 
L 19.921875 0 
L 10.890625 0 
L 10.890625 47.703125 
L 2.296875 47.703125 
L 2.296875 54.6875 
L 10.890625 54.6875 
L 10.890625 58.5 
Q 10.890625 67.625 15.140625 71.796875 
Q 19.390625 75.984375 28.609375 75.984375 
z
" id="DejaVuSans-102"/>
       <path d="M 54.890625 33.015625 
L 54.890625 0 
L 45.90625 0 
L 45.90625 32.71875 
Q 45.90625 40.484375 42.875 44.328125 
Q 39.84375 48.1875 33.796875 48.1875 
Q 26.515625 48.1875 22.3125 43.546875 
Q 18.109375 38.921875 18.109375 30.90625 
L 18.109375 0 
L 9.078125 0 
L 9.078125 75.984375 
L 18.109375 75.984375 
L 18.109375 46.1875 
Q 21.34375 51.125 25.703125 53.5625 
Q 30.078125 56 35.796875 56 
Q 45.21875 56 50.046875 50.171875 
Q 54.890625 44.34375 54.890625 33.015625 
z
" id="DejaVuSans-104"/>
       <path d="M 9.421875 54.6875 
L 18.40625 54.6875 
L 18.40625 0 
L 9.421875 0 
z
M 9.421875 75.984375 
L 18.40625 75.984375 
L 18.40625 64.59375 
L 9.421875 64.59375 
z
" id="DejaVuSans-105"/>
      </defs>
      <g transform="translate(104.72837 84.202469)scale(0.1 -0.1)">
       <use xlink:href="#DejaVuSans-73"/>
       <use x="29.492188" xlink:href="#DejaVuSans-110"/>
       <use x="92.871094" xlink:href="#DejaVuSans-116"/>
       <use x="132.080078" xlink:href="#DejaVuSans-101"/>
       <use x="193.603516" xlink:href="#DejaVuSans-114"/>
       <use x="232.966797" xlink:href="#DejaVuSans-110"/>
       <use x="296.345703" xlink:href="#DejaVuSans-101"/>
       <use x="357.869141" xlink:href="#DejaVuSans-116"/>
       <use x="397.078125" xlink:href="#DejaVuSans-32"/>
       <use x="428.865234" xlink:href="#DejaVuSans-111"/>
       <use x="490.046875" xlink:href="#DejaVuSans-102"/>
       <use x="525.251953" xlink:href="#DejaVuSans-32"/>
       <use x="557.039062" xlink:href="#DejaVuSans-116"/>
       <use x="596.248047" xlink:href="#DejaVuSans-104"/>
       <use x="659.626953" xlink:href="#DejaVuSans-105"/>
       <use x="687.410156" xlink:href="#DejaVuSans-110"/>
       <use x="750.789062" xlink:href="#DejaVuSans-103"/>
       <use x="814.265625" xlink:href="#DejaVuSans-115"/>
       <use x="866.365234" xlink:href="#DejaVuSans-32"/>
       <use x="898.152344" xlink:href="#DejaVuSans-97"/>
       <use x="959.431641" xlink:href="#DejaVuSans-114"/>
       <use x="998.294922" xlink:href="#DejaVuSans-101"/>
       <use x="1059.818359" xlink:href="#DejaVuSans-97"/>
      </g>
     </g>
    </g>
    <g id="ytick_2">
     <g id="line2d_8">
      <g>
       <use style="stroke:#000000;stroke-width:0.8;" x="223.836183" xlink:href="#m2faabcd99a" y="147.14325"/>
      </g>
     </g>
     <g id="text_9">
      <!-- 3D printing area -->
      <defs>
       <path d="M 19.671875 64.796875 
L 19.671875 8.109375 
L 31.59375 8.109375 
Q 46.6875 8.109375 53.6875 14.9375 
Q 60.6875 21.78125 60.6875 36.53125 
Q 60.6875 51.171875 53.6875 57.984375 
Q 46.6875 64.796875 31.59375 64.796875 
z
M 9.8125 72.90625 
L 30.078125 72.90625 
Q 51.265625 72.90625 61.171875 64.09375 
Q 71.09375 55.28125 71.09375 36.53125 
Q 71.09375 17.671875 61.125 8.828125 
Q 51.171875 0 30.078125 0 
L 9.8125 0 
z
" id="DejaVuSans-68"/>
       <path d="M 18.109375 8.203125 
L 18.109375 -20.796875 
L 9.078125 -20.796875 
L 9.078125 54.6875 
L 18.109375 54.6875 
L 18.109375 46.390625 
Q 20.953125 51.265625 25.265625 53.625 
Q 29.59375 56 35.59375 56 
Q 45.5625 56 51.78125 48.09375 
Q 58.015625 40.1875 58.015625 27.296875 
Q 58.015625 14.40625 51.78125 6.484375 
Q 45.5625 -1.421875 35.59375 -1.421875 
Q 29.59375 -1.421875 25.265625 0.953125 
Q 20.953125 3.328125 18.109375 8.203125 
z
M 48.6875 27.296875 
Q 48.6875 37.203125 44.609375 42.84375 
Q 40.53125 48.484375 33.40625 48.484375 
Q 26.265625 48.484375 22.1875 42.84375 
Q 18.109375 37.203125 18.109375 27.296875 
Q 18.109375 17.390625 22.1875 11.75 
Q 26.265625 6.109375 33.40625 6.109375 
Q 40.53125 6.109375 44.609375 11.75 
Q 48.6875 17.390625 48.6875 27.296875 
z
" id="DejaVuSans-112"/>
      </defs>
      <g transform="translate(135.162745 150.942469)scale(0.1 -0.1)">
       <use xlink:href="#DejaVuSans-51"/>
       <use x="63.623047" xlink:href="#DejaVuSans-68"/>
       <use x="140.625" xlink:href="#DejaVuSans-32"/>
       <use x="172.412109" xlink:href="#DejaVuSans-112"/>
       <use x="235.888672" xlink:href="#DejaVuSans-114"/>
       <use x="277.001953" xlink:href="#DejaVuSans-105"/>
       <use x="304.785156" xlink:href="#DejaVuSans-110"/>
       <use x="368.164062" xlink:href="#DejaVuSans-116"/>
       <use x="407.373047" xlink:href="#DejaVuSans-105"/>
       <use x="435.15625" xlink:href="#DejaVuSans-110"/>
       <use x="498.535156" xlink:href="#DejaVuSans-103"/>
       <use x="562.011719" xlink:href="#DejaVuSans-32"/>
       <use x="593.798828" xlink:href="#DejaVuSans-97"/>
       <use x="655.078125" xlink:href="#DejaVuSans-114"/>
       <use x="693.941406" xlink:href="#DejaVuSans-101"/>
       <use x="755.464844" xlink:href="#DejaVuSans-97"/>
      </g>
     </g>
    </g>
    <g id="ytick_3">
     <g id="line2d_9">
      <g>
       <use style="stroke:#000000;stroke-width:0.8;" x="223.836183" xlink:href="#m2faabcd99a" y="213.88325"/>
      </g>
     </g>
     <g id="text_10">
      <!-- robotic area -->
      <defs>
       <path d="M 48.6875 27.296875 
Q 48.6875 37.203125 44.609375 42.84375 
Q 40.53125 48.484375 33.40625 48.484375 
Q 26.265625 48.484375 22.1875 42.84375 
Q 18.109375 37.203125 18.109375 27.296875 
Q 18.109375 17.390625 22.1875 11.75 
Q 26.265625 6.109375 33.40625 6.109375 
Q 40.53125 6.109375 44.609375 11.75 
Q 48.6875 17.390625 48.6875 27.296875 
z
M 18.109375 46.390625 
Q 20.953125 51.265625 25.265625 53.625 
Q 29.59375 56 35.59375 56 
Q 45.5625 56 51.78125 48.09375 
Q 58.015625 40.1875 58.015625 27.296875 
Q 58.015625 14.40625 51.78125 6.484375 
Q 45.5625 -1.421875 35.59375 -1.421875 
Q 29.59375 -1.421875 25.265625 0.953125 
Q 20.953125 3.328125 18.109375 8.203125 
L 18.109375 0 
L 9.078125 0 
L 9.078125 75.984375 
L 18.109375 75.984375 
z
" id="DejaVuSans-98"/>
      </defs>
      <g transform="translate(156.693995 217.682469)scale(0.1 -0.1)">
       <use xlink:href="#DejaVuSans-114"/>
       <use x="38.863281" xlink:href="#DejaVuSans-111"/>
       <use x="100.044922" xlink:href="#DejaVuSans-98"/>
       <use x="163.521484" xlink:href="#DejaVuSans-111"/>
       <use x="224.703125" xlink:href="#DejaVuSans-116"/>
       <use x="263.912109" xlink:href="#DejaVuSans-105"/>
       <use x="291.695312" xlink:href="#DejaVuSans-99"/>
       <use x="346.675781" xlink:href="#DejaVuSans-32"/>
       <use x="378.462891" xlink:href="#DejaVuSans-97"/>
       <use x="439.742188" xlink:href="#DejaVuSans-114"/>
       <use x="478.605469" xlink:href="#DejaVuSans-101"/>
       <use x="540.128906" xlink:href="#DejaVuSans-97"/>
      </g>
     </g>
    </g>
    <g id="ytick_4">
     <g id="line2d_10">
      <g>
       <use style="stroke:#000000;stroke-width:0.8;" x="223.836183" xlink:href="#m2faabcd99a" y="280.62325"/>
      </g>
     </g>
     <g id="text_11">
      <!-- cloud computing area -->
      <defs>
       <path d="M 9.421875 75.984375 
L 18.40625 75.984375 
L 18.40625 0 
L 9.421875 0 
z
" id="DejaVuSans-108"/>
       <path d="M 8.5 21.578125 
L 8.5 54.6875 
L 17.484375 54.6875 
L 17.484375 21.921875 
Q 17.484375 14.15625 20.5 10.265625 
Q 23.53125 6.390625 29.59375 6.390625 
Q 36.859375 6.390625 41.078125 11.03125 
Q 45.3125 15.671875 45.3125 23.6875 
L 45.3125 54.6875 
L 54.296875 54.6875 
L 54.296875 0 
L 45.3125 0 
L 45.3125 8.40625 
Q 42.046875 3.421875 37.71875 1 
Q 33.40625 -1.421875 27.6875 -1.421875 
Q 18.265625 -1.421875 13.375 4.4375 
Q 8.5 10.296875 8.5 21.578125 
z
M 31.109375 56 
z
" id="DejaVuSans-117"/>
       <path d="M 45.40625 46.390625 
L 45.40625 75.984375 
L 54.390625 75.984375 
L 54.390625 0 
L 45.40625 0 
L 45.40625 8.203125 
Q 42.578125 3.328125 38.25 0.953125 
Q 33.9375 -1.421875 27.875 -1.421875 
Q 17.96875 -1.421875 11.734375 6.484375 
Q 5.515625 14.40625 5.515625 27.296875 
Q 5.515625 40.1875 11.734375 48.09375 
Q 17.96875 56 27.875 56 
Q 33.9375 56 38.25 53.625 
Q 42.578125 51.265625 45.40625 46.390625 
z
M 14.796875 27.296875 
Q 14.796875 17.390625 18.875 11.75 
Q 22.953125 6.109375 30.078125 6.109375 
Q 37.203125 6.109375 41.296875 11.75 
Q 45.40625 17.390625 45.40625 27.296875 
Q 45.40625 37.203125 41.296875 42.84375 
Q 37.203125 48.484375 30.078125 48.484375 
Q 22.953125 48.484375 18.875 42.84375 
Q 14.796875 37.203125 14.796875 27.296875 
z
" id="DejaVuSans-100"/>
       <path d="M 52 44.1875 
Q 55.375 50.25 60.0625 53.125 
Q 64.75 56 71.09375 56 
Q 79.640625 56 84.28125 50.015625 
Q 88.921875 44.046875 88.921875 33.015625 
L 88.921875 0 
L 79.890625 0 
L 79.890625 32.71875 
Q 79.890625 40.578125 77.09375 44.375 
Q 74.3125 48.1875 68.609375 48.1875 
Q 61.625 48.1875 57.5625 43.546875 
Q 53.515625 38.921875 53.515625 30.90625 
L 53.515625 0 
L 44.484375 0 
L 44.484375 32.71875 
Q 44.484375 40.625 41.703125 44.40625 
Q 38.921875 48.1875 33.109375 48.1875 
Q 26.21875 48.1875 22.15625 43.53125 
Q 18.109375 38.875 18.109375 30.90625 
L 18.109375 0 
L 9.078125 0 
L 9.078125 54.6875 
L 18.109375 54.6875 
L 18.109375 46.1875 
Q 21.1875 51.21875 25.484375 53.609375 
Q 29.78125 56 35.6875 56 
Q 41.65625 56 45.828125 52.96875 
Q 50 49.953125 52 44.1875 
z
" id="DejaVuSans-109"/>
      </defs>
      <g transform="translate(107.675245 284.422469)scale(0.1 -0.1)">
       <use xlink:href="#DejaVuSans-99"/>
       <use x="54.980469" xlink:href="#DejaVuSans-108"/>
       <use x="82.763672" xlink:href="#DejaVuSans-111"/>
       <use x="143.945312" xlink:href="#DejaVuSans-117"/>
       <use x="207.324219" xlink:href="#DejaVuSans-100"/>
       <use x="270.800781" xlink:href="#DejaVuSans-32"/>
       <use x="302.587891" xlink:href="#DejaVuSans-99"/>
       <use x="357.568359" xlink:href="#DejaVuSans-111"/>
       <use x="418.75" xlink:href="#DejaVuSans-109"/>
       <use x="516.162109" xlink:href="#DejaVuSans-112"/>
       <use x="579.638672" xlink:href="#DejaVuSans-117"/>
       <use x="643.017578" xlink:href="#DejaVuSans-116"/>
       <use x="682.226562" xlink:href="#DejaVuSans-105"/>
       <use x="710.009766" xlink:href="#DejaVuSans-110"/>
       <use x="773.388672" xlink:href="#DejaVuSans-103"/>
       <use x="836.865234" xlink:href="#DejaVuSans-32"/>
       <use x="868.652344" xlink:href="#DejaVuSans-97"/>
       <use x="929.931641" xlink:href="#DejaVuSans-114"/>
       <use x="968.794922" xlink:href="#DejaVuSans-101"/>
       <use x="1030.318359" xlink:href="#DejaVuSans-97"/>
      </g>
     </g>
    </g>
    <g id="ytick_5">
     <g id="line2d_11">
      <g>
       <use style="stroke:#000000;stroke-width:0.8;" x="223.836183" xlink:href="#m2faabcd99a" y="347.36325"/>
      </g>
     </g>
     <g id="text_12">
      <!-- web application area -->
      <defs>
       <path d="M 4.203125 54.6875 
L 13.1875 54.6875 
L 24.421875 12.015625 
L 35.59375 54.6875 
L 46.1875 54.6875 
L 57.421875 12.015625 
L 68.609375 54.6875 
L 77.59375 54.6875 
L 63.28125 0 
L 52.6875 0 
L 40.921875 44.828125 
L 29.109375 0 
L 18.5 0 
z
" id="DejaVuSans-119"/>
      </defs>
      <g transform="translate(112.342433 351.162469)scale(0.1 -0.1)">
       <use xlink:href="#DejaVuSans-119"/>
       <use x="81.787109" xlink:href="#DejaVuSans-101"/>
       <use x="143.310547" xlink:href="#DejaVuSans-98"/>
       <use x="206.787109" xlink:href="#DejaVuSans-32"/>
       <use x="238.574219" xlink:href="#DejaVuSans-97"/>
       <use x="299.853516" xlink:href="#DejaVuSans-112"/>
       <use x="363.330078" xlink:href="#DejaVuSans-112"/>
       <use x="426.806641" xlink:href="#DejaVuSans-108"/>
       <use x="454.589844" xlink:href="#DejaVuSans-105"/>
       <use x="482.373047" xlink:href="#DejaVuSans-99"/>
       <use x="537.353516" xlink:href="#DejaVuSans-97"/>
       <use x="598.632812" xlink:href="#DejaVuSans-116"/>
       <use x="637.841797" xlink:href="#DejaVuSans-105"/>
       <use x="665.625" xlink:href="#DejaVuSans-111"/>
       <use x="726.806641" xlink:href="#DejaVuSans-110"/>
       <use x="790.185547" xlink:href="#DejaVuSans-32"/>
       <use x="821.972656" xlink:href="#DejaVuSans-97"/>
       <use x="883.251953" xlink:href="#DejaVuSans-114"/>
       <use x="922.115234" xlink:href="#DejaVuSans-101"/>
       <use x="983.638672" xlink:href="#DejaVuSans-97"/>
      </g>
     </g>
    </g>
    <g id="ytick_6">
     <g id="line2d_12">
      <g>
       <use style="stroke:#000000;stroke-width:0.8;" x="223.836183" xlink:href="#m2faabcd99a" y="414.10325"/>
      </g>
     </g>
     <g id="text_13">
      <!-- online sales area -->
      <g transform="translate(132.20337 417.902469)scale(0.1 -0.1)">
       <use xlink:href="#DejaVuSans-111"/>
       <use x="61.181641" xlink:href="#DejaVuSans-110"/>
       <use x="124.560547" xlink:href="#DejaVuSans-108"/>
       <use x="152.34375" xlink:href="#DejaVuSans-105"/>
       <use x="180.126953" xlink:href="#DejaVuSans-110"/>
       <use x="243.505859" xlink:href="#DejaVuSans-101"/>
       <use x="305.029297" xlink:href="#DejaVuSans-32"/>
       <use x="336.816406" xlink:href="#DejaVuSans-115"/>
       <use x="388.916016" xlink:href="#DejaVuSans-97"/>
       <use x="450.195312" xlink:href="#DejaVuSans-108"/>
       <use x="477.978516" xlink:href="#DejaVuSans-101"/>
       <use x="539.501953" xlink:href="#DejaVuSans-115"/>
       <use x="591.601562" xlink:href="#DejaVuSans-32"/>
       <use x="623.388672" xlink:href="#DejaVuSans-97"/>
       <use x="684.667969" xlink:href="#DejaVuSans-114"/>
       <use x="723.53125" xlink:href="#DejaVuSans-101"/>
       <use x="785.054688" xlink:href="#DejaVuSans-97"/>
      </g>
     </g>
    </g>
    <g id="ytick_7">
     <g id="line2d_13">
      <g>
       <use style="stroke:#000000;stroke-width:0.8;" x="223.836183" xlink:href="#m2faabcd99a" y="480.84325"/>
      </g>
     </g>
     <g id="text_14">
      <!-- social media area -->
      <g transform="translate(128.525245 484.642469)scale(0.1 -0.1)">
       <use xlink:href="#DejaVuSans-115"/>
       <use x="52.099609" xlink:href="#DejaVuSans-111"/>
       <use x="113.28125" xlink:href="#DejaVuSans-99"/>
       <use x="168.261719" xlink:href="#DejaVuSans-105"/>
       <use x="196.044922" xlink:href="#DejaVuSans-97"/>
       <use x="257.324219" xlink:href="#DejaVuSans-108"/>
       <use x="285.107422" xlink:href="#DejaVuSans-32"/>
       <use x="316.894531" xlink:href="#DejaVuSans-109"/>
       <use x="414.306641" xlink:href="#DejaVuSans-101"/>
       <use x="475.830078" xlink:href="#DejaVuSans-100"/>
       <use x="539.306641" xlink:href="#DejaVuSans-105"/>
       <use x="567.089844" xlink:href="#DejaVuSans-97"/>
       <use x="628.369141" xlink:href="#DejaVuSans-32"/>
       <use x="660.15625" xlink:href="#DejaVuSans-97"/>
       <use x="721.435547" xlink:href="#DejaVuSans-114"/>
       <use x="760.298828" xlink:href="#DejaVuSans-101"/>
       <use x="821.822266" xlink:href="#DejaVuSans-97"/>
      </g>
     </g>
    </g>
    <g id="ytick_8">
     <g id="line2d_14">
      <g>
       <use style="stroke:#000000;stroke-width:0.8;" x="223.836183" xlink:href="#m2faabcd99a" y="547.58325"/>
      </g>
     </g>
     <g id="text_15">
      <!-- Big Data Analytics area -->
      <defs>
       <path d="M 19.671875 34.8125 
L 19.671875 8.109375 
L 35.5 8.109375 
Q 43.453125 8.109375 47.28125 11.40625 
Q 51.125 14.703125 51.125 21.484375 
Q 51.125 28.328125 47.28125 31.5625 
Q 43.453125 34.8125 35.5 34.8125 
z
M 19.671875 64.796875 
L 19.671875 42.828125 
L 34.28125 42.828125 
Q 41.5 42.828125 45.03125 45.53125 
Q 48.578125 48.25 48.578125 53.8125 
Q 48.578125 59.328125 45.03125 62.0625 
Q 41.5 64.796875 34.28125 64.796875 
z
M 9.8125 72.90625 
L 35.015625 72.90625 
Q 46.296875 72.90625 52.390625 68.21875 
Q 58.5 63.53125 58.5 54.890625 
Q 58.5 48.1875 55.375 44.234375 
Q 52.25 40.28125 46.1875 39.3125 
Q 53.46875 37.75 57.5 32.78125 
Q 61.53125 27.828125 61.53125 20.40625 
Q 61.53125 10.640625 54.890625 5.3125 
Q 48.25 0 35.984375 0 
L 9.8125 0 
z
" id="DejaVuSans-66"/>
       <path d="M 34.1875 63.1875 
L 20.796875 26.90625 
L 47.609375 26.90625 
z
M 28.609375 72.90625 
L 39.796875 72.90625 
L 67.578125 0 
L 57.328125 0 
L 50.6875 18.703125 
L 17.828125 18.703125 
L 11.1875 0 
L 0.78125 0 
z
" id="DejaVuSans-65"/>
       <path d="M 32.171875 -5.078125 
Q 28.375 -14.84375 24.75 -17.8125 
Q 21.140625 -20.796875 15.09375 -20.796875 
L 7.90625 -20.796875 
L 7.90625 -13.28125 
L 13.1875 -13.28125 
Q 16.890625 -13.28125 18.9375 -11.515625 
Q 21 -9.765625 23.484375 -3.21875 
L 25.09375 0.875 
L 2.984375 54.6875 
L 12.5 54.6875 
L 29.59375 11.921875 
L 46.6875 54.6875 
L 56.203125 54.6875 
z
" id="DejaVuSans-121"/>
      </defs>
      <g transform="translate(99.733058 551.382469)scale(0.1 -0.1)">
       <use xlink:href="#DejaVuSans-66"/>
       <use x="68.603516" xlink:href="#DejaVuSans-105"/>
       <use x="96.386719" xlink:href="#DejaVuSans-103"/>
       <use x="159.863281" xlink:href="#DejaVuSans-32"/>
       <use x="191.650391" xlink:href="#DejaVuSans-68"/>
       <use x="268.652344" xlink:href="#DejaVuSans-97"/>
       <use x="329.931641" xlink:href="#DejaVuSans-116"/>
       <use x="369.140625" xlink:href="#DejaVuSans-97"/>
       <use x="430.419922" xlink:href="#DejaVuSans-32"/>
       <use x="462.207031" xlink:href="#DejaVuSans-65"/>
       <use x="530.615234" xlink:href="#DejaVuSans-110"/>
       <use x="593.994141" xlink:href="#DejaVuSans-97"/>
       <use x="655.273438" xlink:href="#DejaVuSans-108"/>
       <use x="683.056641" xlink:href="#DejaVuSans-121"/>
       <use x="742.236328" xlink:href="#DejaVuSans-116"/>
       <use x="781.445312" xlink:href="#DejaVuSans-105"/>
       <use x="809.228516" xlink:href="#DejaVuSans-99"/>
       <use x="864.208984" xlink:href="#DejaVuSans-115"/>
       <use x="916.308594" xlink:href="#DejaVuSans-32"/>
       <use x="948.095703" xlink:href="#DejaVuSans-97"/>
       <use x="1009.375" xlink:href="#DejaVuSans-114"/>
       <use x="1048.238281" xlink:href="#DejaVuSans-101"/>
       <use x="1109.761719" xlink:href="#DejaVuSans-97"/>
      </g>
     </g>
    </g>
    <g id="ytick_9">
     <g id="line2d_15">
      <g>
       <use style="stroke:#000000;stroke-width:0.8;" x="223.836183" xlink:href="#m2faabcd99a" y="614.32325"/>
      </g>
     </g>
     <g id="text_16">
      <!-- augmented and virtual reality -->
      <defs>
       <path d="M 2.984375 54.6875 
L 12.5 54.6875 
L 29.59375 8.796875 
L 46.6875 54.6875 
L 56.203125 54.6875 
L 35.6875 0 
L 23.484375 0 
z
" id="DejaVuSans-118"/>
      </defs>
      <g transform="translate(67.486183 618.122469)scale(0.1 -0.1)">
       <use xlink:href="#DejaVuSans-97"/>
       <use x="61.279297" xlink:href="#DejaVuSans-117"/>
       <use x="124.658203" xlink:href="#DejaVuSans-103"/>
       <use x="188.134766" xlink:href="#DejaVuSans-109"/>
       <use x="285.546875" xlink:href="#DejaVuSans-101"/>
       <use x="347.070312" xlink:href="#DejaVuSans-110"/>
       <use x="410.449219" xlink:href="#DejaVuSans-116"/>
       <use x="449.658203" xlink:href="#DejaVuSans-101"/>
       <use x="511.181641" xlink:href="#DejaVuSans-100"/>
       <use x="574.658203" xlink:href="#DejaVuSans-32"/>
       <use x="606.445312" xlink:href="#DejaVuSans-97"/>
       <use x="667.724609" xlink:href="#DejaVuSans-110"/>
       <use x="731.103516" xlink:href="#DejaVuSans-100"/>
       <use x="794.580078" xlink:href="#DejaVuSans-32"/>
       <use x="826.367188" xlink:href="#DejaVuSans-118"/>
       <use x="885.546875" xlink:href="#DejaVuSans-105"/>
       <use x="913.330078" xlink:href="#DejaVuSans-114"/>
       <use x="954.443359" xlink:href="#DejaVuSans-116"/>
       <use x="993.652344" xlink:href="#DejaVuSans-117"/>
       <use x="1057.03125" xlink:href="#DejaVuSans-97"/>
       <use x="1118.310547" xlink:href="#DejaVuSans-108"/>
       <use x="1146.09375" xlink:href="#DejaVuSans-32"/>
       <use x="1177.880859" xlink:href="#DejaVuSans-114"/>
       <use x="1216.744141" xlink:href="#DejaVuSans-101"/>
       <use x="1278.267578" xlink:href="#DejaVuSans-97"/>
       <use x="1339.546875" xlink:href="#DejaVuSans-108"/>
       <use x="1367.330078" xlink:href="#DejaVuSans-105"/>
       <use x="1395.113281" xlink:href="#DejaVuSans-116"/>
       <use x="1434.322266" xlink:href="#DejaVuSans-121"/>
      </g>
     </g>
    </g>
    <g id="ytick_10">
     <g id="line2d_16">
      <g>
       <use style="stroke:#000000;stroke-width:0.8;" x="223.836183" xlink:href="#m2faabcd99a" y="681.06325"/>
      </g>
     </g>
     <g id="text_17">
      <!-- IT security area -->
      <defs>
       <path d="M -0.296875 72.90625 
L 61.375 72.90625 
L 61.375 64.59375 
L 35.5 64.59375 
L 35.5 0 
L 25.59375 0 
L 25.59375 64.59375 
L -0.296875 64.59375 
z
" id="DejaVuSans-84"/>
      </defs>
      <g transform="translate(139.200245 684.862469)scale(0.1 -0.1)">
       <use xlink:href="#DejaVuSans-73"/>
       <use x="29.492188" xlink:href="#DejaVuSans-84"/>
       <use x="90.576172" xlink:href="#DejaVuSans-32"/>
       <use x="122.363281" xlink:href="#DejaVuSans-115"/>
       <use x="174.462891" xlink:href="#DejaVuSans-101"/>
       <use x="235.986328" xlink:href="#DejaVuSans-99"/>
       <use x="290.966797" xlink:href="#DejaVuSans-117"/>
       <use x="354.345703" xlink:href="#DejaVuSans-114"/>
       <use x="395.458984" xlink:href="#DejaVuSans-105"/>
       <use x="423.242188" xlink:href="#DejaVuSans-116"/>
       <use x="462.451172" xlink:href="#DejaVuSans-121"/>
       <use x="521.630859" xlink:href="#DejaVuSans-32"/>
       <use x="553.417969" xlink:href="#DejaVuSans-97"/>
       <use x="614.697266" xlink:href="#DejaVuSans-114"/>
       <use x="653.560547" xlink:href="#DejaVuSans-101"/>
       <use x="715.083984" xlink:href="#DejaVuSans-97"/>
      </g>
     </g>
    </g>
    <g id="text_18">
     <!-- Technological areas -->
     <g transform="translate(60.57462 449.308094)rotate(-90)scale(0.14 -0.14)">
      <use xlink:href="#DejaVuSans-84"/>
      <use x="44.083984" xlink:href="#DejaVuSans-101"/>
      <use x="105.607422" xlink:href="#DejaVuSans-99"/>
      <use x="160.587891" xlink:href="#DejaVuSans-104"/>
      <use x="223.966797" xlink:href="#DejaVuSans-110"/>
      <use x="287.345703" xlink:href="#DejaVuSans-111"/>
      <use x="348.527344" xlink:href="#DejaVuSans-108"/>
      <use x="376.310547" xlink:href="#DejaVuSans-111"/>
      <use x="437.492188" xlink:href="#DejaVuSans-103"/>
      <use x="500.96875" xlink:href="#DejaVuSans-105"/>
      <use x="528.751953" xlink:href="#DejaVuSans-99"/>
      <use x="583.732422" xlink:href="#DejaVuSans-97"/>
      <use x="645.011719" xlink:href="#DejaVuSans-108"/>
      <use x="672.794922" xlink:href="#DejaVuSans-32"/>
      <use x="704.582031" xlink:href="#DejaVuSans-97"/>
      <use x="765.861328" xlink:href="#DejaVuSans-114"/>
      <use x="804.724609" xlink:href="#DejaVuSans-101"/>
      <use x="866.248047" xlink:href="#DejaVuSans-97"/>
      <use x="927.527344" xlink:href="#DejaVuSans-115"/>
     </g>
    </g>
   </g>
   <g id="line2d_17">
    <path clip-path="url(#pd7704365e9)" d="M 0 0 
" style="fill:none;stroke:#424242;stroke-linecap:square;stroke-width:2.7;"/>
   </g>
   <g id="line2d_18">
    <path clip-path="url(#pd7704365e9)" d="M 0 0 
" style="fill:none;stroke:#424242;stroke-linecap:square;stroke-width:2.7;"/>
   </g>
   <g id="line2d_19">
    <path clip-path="url(#pd7704365e9)" d="M 0 0 
" style="fill:none;stroke:#424242;stroke-linecap:square;stroke-width:2.7;"/>
   </g>
   <g id="line2d_20">
    <path clip-path="url(#pd7704365e9)" d="M 0 0 
" style="fill:none;stroke:#424242;stroke-linecap:square;stroke-width:2.7;"/>
   </g>
   <g id="line2d_21">
    <path clip-path="url(#pd7704365e9)" d="M 0 0 
" style="fill:none;stroke:#424242;stroke-linecap:square;stroke-width:2.7;"/>
   </g>
   <g id="line2d_22">
    <path clip-path="url(#pd7704365e9)" d="M 0 0 
" style="fill:none;stroke:#424242;stroke-linecap:square;stroke-width:2.7;"/>
   </g>
   <g id="line2d_23">
    <path clip-path="url(#pd7704365e9)" d="M 0 0 
" style="fill:none;stroke:#424242;stroke-linecap:square;stroke-width:2.7;"/>
   </g>
   <g id="line2d_24">
    <path clip-path="url(#pd7704365e9)" d="M 0 0 
" style="fill:none;stroke:#424242;stroke-linecap:square;stroke-width:2.7;"/>
   </g>
   <g id="line2d_25">
    <path clip-path="url(#pd7704365e9)" d="M 0 0 
" style="fill:none;stroke:#424242;stroke-linecap:square;stroke-width:2.7;"/>
   </g>
   <g id="line2d_26">
    <path clip-path="url(#pd7704365e9)" d="M 0 0 
" style="fill:none;stroke:#424242;stroke-linecap:square;stroke-width:2.7;"/>
   </g>
   <g id="line2d_27">
    <path clip-path="url(#pd7704365e9)" d="M 0 0 
" style="fill:none;stroke:#424242;stroke-linecap:square;stroke-width:2.7;"/>
   </g>
   <g id="line2d_28">
    <path clip-path="url(#pd7704365e9)" d="M 0 0 
" style="fill:none;stroke:#424242;stroke-linecap:square;stroke-width:2.7;"/>
   </g>
   <g id="line2d_29">
    <path clip-path="url(#pd7704365e9)" d="M 0 0 
" style="fill:none;stroke:#424242;stroke-linecap:square;stroke-width:2.7;"/>
   </g>
   <g id="line2d_30">
    <path clip-path="url(#pd7704365e9)" d="M 0 0 
" style="fill:none;stroke:#424242;stroke-linecap:square;stroke-width:2.7;"/>
   </g>
   <g id="line2d_31">
    <path clip-path="url(#pd7704365e9)" d="M 0 0 
" style="fill:none;stroke:#424242;stroke-linecap:square;stroke-width:2.7;"/>
   </g>
   <g id="line2d_32">
    <path clip-path="url(#pd7704365e9)" d="M 0 0 
" style="fill:none;stroke:#424242;stroke-linecap:square;stroke-width:2.7;"/>
   </g>
   <g id="line2d_33">
    <path clip-path="url(#pd7704365e9)" d="M 0 0 
" style="fill:none;stroke:#424242;stroke-linecap:square;stroke-width:2.7;"/>
   </g>
   <g id="line2d_34">
    <path clip-path="url(#pd7704365e9)" d="M 0 0 
" style="fill:none;stroke:#424242;stroke-linecap:square;stroke-width:2.7;"/>
   </g>
   <g id="line2d_35">
    <path clip-path="url(#pd7704365e9)" d="M 0 0 
" style="fill:none;stroke:#424242;stroke-linecap:square;stroke-width:2.7;"/>
   </g>
   <g id="line2d_36">
    <path clip-path="url(#pd7704365e9)" d="M 0 0 
" style="fill:none;stroke:#424242;stroke-linecap:square;stroke-width:2.7;"/>
   </g>
   <g id="line2d_37">
    <path clip-path="url(#pd7704365e9)" d="M 0 0 
" style="fill:none;stroke:#424242;stroke-linecap:square;stroke-width:2.7;"/>
   </g>
   <g id="line2d_38">
    <path clip-path="url(#pd7704365e9)" d="M 0 0 
" style="fill:none;stroke:#424242;stroke-linecap:square;stroke-width:2.7;"/>
   </g>
   <g id="line2d_39">
    <path clip-path="url(#pd7704365e9)" d="M 0 0 
" style="fill:none;stroke:#424242;stroke-linecap:square;stroke-width:2.7;"/>
   </g>
   <g id="line2d_40">
    <path clip-path="url(#pd7704365e9)" d="M 0 0 
" style="fill:none;stroke:#424242;stroke-linecap:square;stroke-width:2.7;"/>
   </g>
   <g id="line2d_41">
    <path clip-path="url(#pd7704365e9)" d="M 0 0 
" style="fill:none;stroke:#424242;stroke-linecap:square;stroke-width:2.7;"/>
   </g>
   <g id="line2d_42">
    <path clip-path="url(#pd7704365e9)" d="M 0 0 
" style="fill:none;stroke:#424242;stroke-linecap:square;stroke-width:2.7;"/>
   </g>
   <g id="line2d_43">
    <path clip-path="url(#pd7704365e9)" d="M 0 0 
" style="fill:none;stroke:#424242;stroke-linecap:square;stroke-width:2.7;"/>
   </g>
   <g id="line2d_44">
    <path clip-path="url(#pd7704365e9)" d="M 0 0 
" style="fill:none;stroke:#424242;stroke-linecap:square;stroke-width:2.7;"/>
   </g>
   <g id="line2d_45">
    <path clip-path="url(#pd7704365e9)" d="M 0 0 
" style="fill:none;stroke:#424242;stroke-linecap:square;stroke-width:2.7;"/>
   </g>
   <g id="line2d_46">
    <path clip-path="url(#pd7704365e9)" d="M 0 0 
" style="fill:none;stroke:#424242;stroke-linecap:square;stroke-width:2.7;"/>
   </g>
   <g id="line2d_47">
    <path clip-path="url(#pd7704365e9)" d="M 0 0 
" style="fill:none;stroke:#424242;stroke-linecap:square;stroke-width:2.7;"/>
   </g>
   <g id="line2d_48">
    <path clip-path="url(#pd7704365e9)" d="M 0 0 
" style="fill:none;stroke:#424242;stroke-linecap:square;stroke-width:2.7;"/>
   </g>
   <g id="line2d_49">
    <path clip-path="url(#pd7704365e9)" d="M 0 0 
" style="fill:none;stroke:#424242;stroke-linecap:square;stroke-width:2.7;"/>
   </g>
   <g id="line2d_50">
    <path clip-path="url(#pd7704365e9)" d="M 0 0 
" style="fill:none;stroke:#424242;stroke-linecap:square;stroke-width:2.7;"/>
   </g>
   <g id="line2d_51">
    <path clip-path="url(#pd7704365e9)" d="M 0 0 
" style="fill:none;stroke:#424242;stroke-linecap:square;stroke-width:2.7;"/>
   </g>
   <g id="line2d_52">
    <path clip-path="url(#pd7704365e9)" d="M 0 0 
" style="fill:none;stroke:#424242;stroke-linecap:square;stroke-width:2.7;"/>
   </g>
   <g id="line2d_53">
    <path clip-path="url(#pd7704365e9)" d="M 0 0 
" style="fill:none;stroke:#424242;stroke-linecap:square;stroke-width:2.7;"/>
   </g>
   <g id="line2d_54">
    <path clip-path="url(#pd7704365e9)" d="M 0 0 
" style="fill:none;stroke:#424242;stroke-linecap:square;stroke-width:2.7;"/>
   </g>
   <g id="line2d_55">
    <path clip-path="url(#pd7704365e9)" d="M 0 0 
" style="fill:none;stroke:#424242;stroke-linecap:square;stroke-width:2.7;"/>
   </g>
   <g id="line2d_56">
    <path clip-path="url(#pd7704365e9)" d="M 0 0 
" style="fill:none;stroke:#424242;stroke-linecap:square;stroke-width:2.7;"/>
   </g>
   <g id="patch_43">
    <path d="M 223.836183 714.43325 
L 223.836183 47.03325 
" style="fill:none;stroke:#000000;stroke-linecap:square;stroke-linejoin:miter;stroke-width:0.8;"/>
   </g>
   <g id="patch_44">
    <path d="M 223.836183 714.43325 
L 731.68538 714.43325 
" style="fill:none;stroke:#000000;stroke-linecap:square;stroke-linejoin:miter;stroke-width:0.8;"/>
   </g>
   <g id="text_19">
    <!-- Enterprises which had acquired goods/services in technological areas in the previous three years (2017) -->
    <defs>
     <path d="M 9.8125 72.90625 
L 55.90625 72.90625 
L 55.90625 64.59375 
L 19.671875 64.59375 
L 19.671875 43.015625 
L 54.390625 43.015625 
L 54.390625 34.71875 
L 19.671875 34.71875 
L 19.671875 8.296875 
L 56.78125 8.296875 
L 56.78125 0 
L 9.8125 0 
z
" id="DejaVuSans-69"/>
     <path d="M 14.796875 27.296875 
Q 14.796875 17.390625 18.875 11.75 
Q 22.953125 6.109375 30.078125 6.109375 
Q 37.203125 6.109375 41.296875 11.75 
Q 45.40625 17.390625 45.40625 27.296875 
Q 45.40625 37.203125 41.296875 42.84375 
Q 37.203125 48.484375 30.078125 48.484375 
Q 22.953125 48.484375 18.875 42.84375 
Q 14.796875 37.203125 14.796875 27.296875 
z
M 45.40625 8.203125 
Q 42.578125 3.328125 38.25 0.953125 
Q 33.9375 -1.421875 27.875 -1.421875 
Q 17.96875 -1.421875 11.734375 6.484375 
Q 5.515625 14.40625 5.515625 27.296875 
Q 5.515625 40.1875 11.734375 48.09375 
Q 17.96875 56 27.875 56 
Q 33.9375 56 38.25 53.625 
Q 42.578125 51.265625 45.40625 46.390625 
L 45.40625 54.6875 
L 54.390625 54.6875 
L 54.390625 -20.796875 
L 45.40625 -20.796875 
z
" id="DejaVuSans-113"/>
     <path d="M 25.390625 72.90625 
L 33.6875 72.90625 
L 8.296875 -9.28125 
L 0 -9.28125 
z
" id="DejaVuSans-47"/>
     <path d="M 31 75.875 
Q 24.46875 64.65625 21.28125 53.65625 
Q 18.109375 42.671875 18.109375 31.390625 
Q 18.109375 20.125 21.3125 9.0625 
Q 24.515625 -2 31 -13.1875 
L 23.1875 -13.1875 
Q 15.875 -1.703125 12.234375 9.375 
Q 8.59375 20.453125 8.59375 31.390625 
Q 8.59375 42.28125 12.203125 53.3125 
Q 15.828125 64.359375 23.1875 75.875 
z
" id="DejaVuSans-40"/>
     <path d="M 8.203125 72.90625 
L 55.078125 72.90625 
L 55.078125 68.703125 
L 28.609375 0 
L 18.3125 0 
L 43.21875 64.59375 
L 8.203125 64.59375 
z
" id="DejaVuSans-55"/>
     <path d="M 8.015625 75.875 
L 15.828125 75.875 
Q 23.140625 64.359375 26.78125 53.3125 
Q 30.421875 42.28125 30.421875 31.390625 
Q 30.421875 20.453125 26.78125 9.375 
Q 23.140625 -1.703125 15.828125 -13.1875 
L 8.015625 -13.1875 
Q 14.5 -2 17.703125 9.0625 
Q 20.90625 20.125 20.90625 31.390625 
Q 20.90625 42.671875 17.703125 53.65625 
Q 14.5 64.65625 8.015625 75.875 
z
" id="DejaVuSans-41"/>
    </defs>
    <g transform="translate(7.2 20.877187)scale(0.18 -0.18)">
     <use xlink:href="#DejaVuSans-69"/>
     <use x="63.183594" xlink:href="#DejaVuSans-110"/>
     <use x="126.5625" xlink:href="#DejaVuSans-116"/>
     <use x="165.771484" xlink:href="#DejaVuSans-101"/>
     <use x="227.294922" xlink:href="#DejaVuSans-114"/>
     <use x="268.408203" xlink:href="#DejaVuSans-112"/>
     <use x="331.884766" xlink:href="#DejaVuSans-114"/>
     <use x="372.998047" xlink:href="#DejaVuSans-105"/>
     <use x="400.78125" xlink:href="#DejaVuSans-115"/>
     <use x="452.880859" xlink:href="#DejaVuSans-101"/>
     <use x="514.404297" xlink:href="#DejaVuSans-115"/>
     <use x="566.503906" xlink:href="#DejaVuSans-32"/>
     <use x="598.291016" xlink:href="#DejaVuSans-119"/>
     <use x="680.078125" xlink:href="#DejaVuSans-104"/>
     <use x="743.457031" xlink:href="#DejaVuSans-105"/>
     <use x="771.240234" xlink:href="#DejaVuSans-99"/>
     <use x="826.220703" xlink:href="#DejaVuSans-104"/>
     <use x="889.599609" xlink:href="#DejaVuSans-32"/>
     <use x="921.386719" xlink:href="#DejaVuSans-104"/>
     <use x="984.765625" xlink:href="#DejaVuSans-97"/>
     <use x="1046.044922" xlink:href="#DejaVuSans-100"/>
     <use x="1109.521484" xlink:href="#DejaVuSans-32"/>
     <use x="1141.308594" xlink:href="#DejaVuSans-97"/>
     <use x="1202.587891" xlink:href="#DejaVuSans-99"/>
     <use x="1257.568359" xlink:href="#DejaVuSans-113"/>
     <use x="1321.044922" xlink:href="#DejaVuSans-117"/>
     <use x="1384.423828" xlink:href="#DejaVuSans-105"/>
     <use x="1412.207031" xlink:href="#DejaVuSans-114"/>
     <use x="1451.070312" xlink:href="#DejaVuSans-101"/>
     <use x="1512.59375" xlink:href="#DejaVuSans-100"/>
     <use x="1576.070312" xlink:href="#DejaVuSans-32"/>
     <use x="1607.857422" xlink:href="#DejaVuSans-103"/>
     <use x="1671.333984" xlink:href="#DejaVuSans-111"/>
     <use x="1732.515625" xlink:href="#DejaVuSans-111"/>
     <use x="1793.697266" xlink:href="#DejaVuSans-100"/>
     <use x="1857.173828" xlink:href="#DejaVuSans-115"/>
     <use x="1909.273438" xlink:href="#DejaVuSans-47"/>
     <use x="1942.964844" xlink:href="#DejaVuSans-115"/>
     <use x="1995.064453" xlink:href="#DejaVuSans-101"/>
     <use x="2056.587891" xlink:href="#DejaVuSans-114"/>
     <use x="2097.701172" xlink:href="#DejaVuSans-118"/>
     <use x="2156.880859" xlink:href="#DejaVuSans-105"/>
     <use x="2184.664062" xlink:href="#DejaVuSans-99"/>
     <use x="2239.644531" xlink:href="#DejaVuSans-101"/>
     <use x="2301.167969" xlink:href="#DejaVuSans-115"/>
     <use x="2353.267578" xlink:href="#DejaVuSans-32"/>
     <use x="2385.054688" xlink:href="#DejaVuSans-105"/>
     <use x="2412.837891" xlink:href="#DejaVuSans-110"/>
     <use x="2476.216797" xlink:href="#DejaVuSans-32"/>
     <use x="2508.003906" xlink:href="#DejaVuSans-116"/>
     <use x="2547.212891" xlink:href="#DejaVuSans-101"/>
     <use x="2608.736328" xlink:href="#DejaVuSans-99"/>
     <use x="2663.716797" xlink:href="#DejaVuSans-104"/>
     <use x="2727.095703" xlink:href="#DejaVuSans-110"/>
     <use x="2790.474609" xlink:href="#DejaVuSans-111"/>
     <use x="2851.65625" xlink:href="#DejaVuSans-108"/>
     <use x="2879.439453" xlink:href="#DejaVuSans-111"/>
     <use x="2940.621094" xlink:href="#DejaVuSans-103"/>
     <use x="3004.097656" xlink:href="#DejaVuSans-105"/>
     <use x="3031.880859" xlink:href="#DejaVuSans-99"/>
     <use x="3086.861328" xlink:href="#DejaVuSans-97"/>
     <use x="3148.140625" xlink:href="#DejaVuSans-108"/>
     <use x="3175.923828" xlink:href="#DejaVuSans-32"/>
     <use x="3207.710938" xlink:href="#DejaVuSans-97"/>
     <use x="3268.990234" xlink:href="#DejaVuSans-114"/>
     <use x="3307.853516" xlink:href="#DejaVuSans-101"/>
     <use x="3369.376953" xlink:href="#DejaVuSans-97"/>
     <use x="3430.65625" xlink:href="#DejaVuSans-115"/>
     <use x="3482.755859" xlink:href="#DejaVuSans-32"/>
     <use x="3514.542969" xlink:href="#DejaVuSans-105"/>
     <use x="3542.326172" xlink:href="#DejaVuSans-110"/>
     <use x="3605.705078" xlink:href="#DejaVuSans-32"/>
     <use x="3637.492188" xlink:href="#DejaVuSans-116"/>
     <use x="3676.701172" xlink:href="#DejaVuSans-104"/>
     <use x="3740.080078" xlink:href="#DejaVuSans-101"/>
     <use x="3801.603516" xlink:href="#DejaVuSans-32"/>
     <use x="3833.390625" xlink:href="#DejaVuSans-112"/>
     <use x="3896.867188" xlink:href="#DejaVuSans-114"/>
     <use x="3935.730469" xlink:href="#DejaVuSans-101"/>
     <use x="3997.253906" xlink:href="#DejaVuSans-118"/>
     <use x="4056.433594" xlink:href="#DejaVuSans-105"/>
     <use x="4084.216797" xlink:href="#DejaVuSans-111"/>
     <use x="4145.398438" xlink:href="#DejaVuSans-117"/>
     <use x="4208.777344" xlink:href="#DejaVuSans-115"/>
     <use x="4260.876953" xlink:href="#DejaVuSans-32"/>
     <use x="4292.664062" xlink:href="#DejaVuSans-116"/>
     <use x="4331.873047" xlink:href="#DejaVuSans-104"/>
     <use x="4395.251953" xlink:href="#DejaVuSans-114"/>
     <use x="4434.115234" xlink:href="#DejaVuSans-101"/>
     <use x="4495.638672" xlink:href="#DejaVuSans-101"/>
     <use x="4557.162109" xlink:href="#DejaVuSans-32"/>
     <use x="4588.949219" xlink:href="#DejaVuSans-121"/>
     <use x="4648.128906" xlink:href="#DejaVuSans-101"/>
     <use x="4709.652344" xlink:href="#DejaVuSans-97"/>
     <use x="4770.931641" xlink:href="#DejaVuSans-114"/>
     <use x="4812.044922" xlink:href="#DejaVuSans-115"/>
     <use x="4864.144531" xlink:href="#DejaVuSans-32"/>
     <use x="4895.931641" xlink:href="#DejaVuSans-40"/>
     <use x="4934.945312" xlink:href="#DejaVuSans-50"/>
     <use x="4998.568359" xlink:href="#DejaVuSans-48"/>
     <use x="5062.191406" xlink:href="#DejaVuSans-49"/>
     <use x="5125.814453" xlink:href="#DejaVuSans-55"/>
     <use x="5189.4375" xlink:href="#DejaVuSans-41"/>
    </g>
    <!--  -->
    <g transform="translate(477.760781 41.03325)scale(0.18 -0.18)"/>
   </g>
   <g id="legend_1">
    <g id="patch_45">
     <path d="M 596.27138 143.09925 
L 721.60538 143.09925 
Q 724.48538 143.09925 724.48538 140.21925 
L 724.48538 57.11325 
Q 724.48538 54.23325 721.60538 54.23325 
L 596.27138 54.23325 
Q 593.39138 54.23325 593.39138 57.11325 
L 593.39138 140.21925 
Q 593.39138 143.09925 596.27138 143.09925 
z
" style="fill:#ffffff;opacity:0.8;stroke:#cccccc;stroke-linejoin:miter;"/>
    </g>
    <g id="patch_46">
     <path d="M 599.15138 70.935 
L 627.95138 70.935 
L 627.95138 60.855 
L 599.15138 60.855 
z
" style="fill:#3274a1;"/>
    </g>
    <g id="text_20">
     <!-- North-west -->
     <defs>
      <path d="M 9.8125 72.90625 
L 23.09375 72.90625 
L 55.421875 11.921875 
L 55.421875 72.90625 
L 64.984375 72.90625 
L 64.984375 0 
L 51.703125 0 
L 19.390625 60.984375 
L 19.390625 0 
L 9.8125 0 
z
" id="DejaVuSans-78"/>
      <path d="M 4.890625 31.390625 
L 31.203125 31.390625 
L 31.203125 23.390625 
L 4.890625 23.390625 
z
" id="DejaVuSans-45"/>
     </defs>
     <g transform="translate(639.47138 70.935)scale(0.144 -0.144)">
      <use xlink:href="#DejaVuSans-78"/>
      <use x="74.804688" xlink:href="#DejaVuSans-111"/>
      <use x="135.986328" xlink:href="#DejaVuSans-114"/>
      <use x="177.099609" xlink:href="#DejaVuSans-116"/>
      <use x="216.308594" xlink:href="#DejaVuSans-104"/>
      <use x="279.6875" xlink:href="#DejaVuSans-45"/>
      <use x="315.771484" xlink:href="#DejaVuSans-119"/>
      <use x="397.558594" xlink:href="#DejaVuSans-101"/>
      <use x="459.082031" xlink:href="#DejaVuSans-115"/>
      <use x="511.181641" xlink:href="#DejaVuSans-116"/>
     </g>
    </g>
    <g id="patch_47">
     <path d="M 599.15138 92.0715 
L 627.95138 92.0715 
L 627.95138 81.9915 
L 599.15138 81.9915 
z
" style="fill:#e1812c;"/>
    </g>
    <g id="text_21">
     <!-- North-east -->
     <g transform="translate(639.47138 92.0715)scale(0.144 -0.144)">
      <use xlink:href="#DejaVuSans-78"/>
      <use x="74.804688" xlink:href="#DejaVuSans-111"/>
      <use x="135.986328" xlink:href="#DejaVuSans-114"/>
      <use x="177.099609" xlink:href="#DejaVuSans-116"/>
      <use x="216.308594" xlink:href="#DejaVuSans-104"/>
      <use x="279.6875" xlink:href="#DejaVuSans-45"/>
      <use x="315.771484" xlink:href="#DejaVuSans-101"/>
      <use x="377.294922" xlink:href="#DejaVuSans-97"/>
      <use x="438.574219" xlink:href="#DejaVuSans-115"/>
      <use x="490.673828" xlink:href="#DejaVuSans-116"/>
     </g>
    </g>
    <g id="patch_48">
     <path d="M 599.15138 113.208 
L 627.95138 113.208 
L 627.95138 103.128 
L 599.15138 103.128 
z
" style="fill:#3a923a;"/>
    </g>
    <g id="text_22">
     <!-- Center -->
     <defs>
      <path d="M 64.40625 67.28125 
L 64.40625 56.890625 
Q 59.421875 61.53125 53.78125 63.8125 
Q 48.140625 66.109375 41.796875 66.109375 
Q 29.296875 66.109375 22.65625 58.46875 
Q 16.015625 50.828125 16.015625 36.375 
Q 16.015625 21.96875 22.65625 14.328125 
Q 29.296875 6.6875 41.796875 6.6875 
Q 48.140625 6.6875 53.78125 8.984375 
Q 59.421875 11.28125 64.40625 15.921875 
L 64.40625 5.609375 
Q 59.234375 2.09375 53.4375 0.328125 
Q 47.65625 -1.421875 41.21875 -1.421875 
Q 24.65625 -1.421875 15.125 8.703125 
Q 5.609375 18.84375 5.609375 36.375 
Q 5.609375 53.953125 15.125 64.078125 
Q 24.65625 74.21875 41.21875 74.21875 
Q 47.75 74.21875 53.53125 72.484375 
Q 59.328125 70.75 64.40625 67.28125 
z
" id="DejaVuSans-67"/>
     </defs>
     <g transform="translate(639.47138 113.208)scale(0.144 -0.144)">
      <use xlink:href="#DejaVuSans-67"/>
      <use x="69.824219" xlink:href="#DejaVuSans-101"/>
      <use x="131.347656" xlink:href="#DejaVuSans-110"/>
      <use x="194.726562" xlink:href="#DejaVuSans-116"/>
      <use x="233.935547" xlink:href="#DejaVuSans-101"/>
      <use x="295.458984" xlink:href="#DejaVuSans-114"/>
     </g>
    </g>
    <g id="patch_49">
     <path d="M 599.15138 134.3445 
L 627.95138 134.3445 
L 627.95138 124.2645 
L 599.15138 124.2645 
z
" style="fill:#c03d3e;"/>
    </g>
    <g id="text_23">
     <!-- South -->
     <defs>
      <path d="M 53.515625 70.515625 
L 53.515625 60.890625 
Q 47.90625 63.578125 42.921875 64.890625 
Q 37.9375 66.21875 33.296875 66.21875 
Q 25.25 66.21875 20.875 63.09375 
Q 16.5 59.96875 16.5 54.203125 
Q 16.5 49.359375 19.40625 46.890625 
Q 22.3125 44.4375 30.421875 42.921875 
L 36.375 41.703125 
Q 47.40625 39.59375 52.65625 34.296875 
Q 57.90625 29 57.90625 20.125 
Q 57.90625 9.515625 50.796875 4.046875 
Q 43.703125 -1.421875 29.984375 -1.421875 
Q 24.8125 -1.421875 18.96875 -0.25 
Q 13.140625 0.921875 6.890625 3.21875 
L 6.890625 13.375 
Q 12.890625 10.015625 18.65625 8.296875 
Q 24.421875 6.59375 29.984375 6.59375 
Q 38.421875 6.59375 43.015625 9.90625 
Q 47.609375 13.234375 47.609375 19.390625 
Q 47.609375 24.75 44.3125 27.78125 
Q 41.015625 30.8125 33.5 32.328125 
L 27.484375 33.5 
Q 16.453125 35.6875 11.515625 40.375 
Q 6.59375 45.0625 6.59375 53.421875 
Q 6.59375 63.09375 13.40625 68.65625 
Q 20.21875 74.21875 32.171875 74.21875 
Q 37.3125 74.21875 42.625 73.28125 
Q 47.953125 72.359375 53.515625 70.515625 
z
" id="DejaVuSans-83"/>
     </defs>
     <g transform="translate(639.47138 134.3445)scale(0.144 -0.144)">
      <use xlink:href="#DejaVuSans-83"/>
      <use x="63.476562" xlink:href="#DejaVuSans-111"/>
      <use x="124.658203" xlink:href="#DejaVuSans-117"/>
      <use x="188.037109" xlink:href="#DejaVuSans-116"/>
      <use x="227.246094" xlink:href="#DejaVuSans-104"/>
     </g>
    </g>
   </g>
  </g>
 </g>
 <defs>
  <clipPath id="pd7704365e9">
   <rect height="667.4" width="507.849197" x="223.836183" y="47.03325"/>
  </clipPath>
 </defs>
</svg>
